<svg xmlns="http://www.w3.org/2000/svg" viewBox="0 0 1280 720">
    <defs>
        <style>
            .a {
                fill: none;
            }
            .b {
                fill: #009640;
            }
            .c {
                fill: #6b6b6b;
            }
        </style>
    </defs>
    <rect class="a" width="1280" height="720" />
    <circle class="b" cx="116.6" cy="224.04" r="8.9" />
    <circle class="b" cx="137.46" cy="244.31" r="8.9" />
    <circle class="b" cx="159.12" cy="265.26" r="8.9" />
    <circle class="b" cx="179.23" cy="287.43" r="8.9" />
    <circle class="b" cx="200.72" cy="309.29" r="8.9" />
    <circle class="b" cx="223.57" cy="331.09" r="8.9" />
    <circle class="b" cx="246.12" cy="355.19" r="8.9" />
    <circle class="b" cx="267.28" cy="376.49" r="8.9" />
    <circle class="b" cx="310.57" cy="376.49" r="8.9" />
    <circle class="b" cx="339.57" cy="376.49" r="8.9" />
    <circle class="b" cx="368.57" cy="376.49" r="8.9" />
    <circle class="b" cx="397.57" cy="376.49" r="8.9" />
    <circle class="b" cx="426.57" cy="376.49" r="8.9" />
    <circle class="b" cx="455.57" cy="376.49" r="8.9" />
    <circle class="b" cx="484.57" cy="376.49" r="8.9" />
    <circle class="b" cx="513.57" cy="376.49" r="8.9" />
    <circle class="b" cx="542.57" cy="376.49" r="8.9" />
    <circle class="b" cx="571.57" cy="376.49" r="8.9" />
    <circle class="b" cx="600.57" cy="376.49" r="8.9" />
    <circle class="b" cx="658.57" cy="376.49" r="8.9" />
    <circle class="b" cx="687.57" cy="376.49" r="8.9" />
    <circle class="b" cx="716.57" cy="376.49" r="8.9" />
    <circle class="b" cx="745.57" cy="376.49" r="8.9" />
    <circle class="b" cx="774.57" cy="376.49" r="8.9" />
    <circle class="b" cx="803.57" cy="376.49" r="8.9" />
    <circle class="b" cx="832.57" cy="376.49" r="8.9" />
    <circle class="b" cx="861.57" cy="376.49" r="8.9" />
    <circle class="b" cx="890.57" cy="376.49" r="8.9" />
    <circle class="b" cx="919.57" cy="376.49" r="8.9" />
    <circle class="b" cx="948.57" cy="376.49" r="8.9" />
    <circle class="b" cx="994.7" cy="376.49" r="8.9" />
    <circle class="b" cx="1016.34" cy="355.19" r="8.9" />
    <circle class="b" cx="1039.6" cy="331.09" r="8.9" />
    <circle class="b" cx="1060.75" cy="309.29" r="8.9" />
    <circle class="b" cx="1081.7" cy="287.43" r="8.9" />
    <circle class="b" cx="1102.65" cy="265.6" r="8.9" />
    <circle class="b" cx="1123.79" cy="244.57" r="8.9" />
    <circle class="b" cx="1145.67" cy="223.29" r="8.9" />
    <circle class="b" cx="82.4" cy="224.14" r="8.9" />
    <circle class="b" cx="102.99" cy="244.31" r="8.9" />
    <circle class="b" cx="121.33" cy="265.26" r="8.9" />
    <circle class="b" cx="141.32" cy="285.26" r="8.9" />
    <circle class="b" cx="160.28" cy="302.63" r="8.9" />
    <circle class="b" cx="179.23" cy="322.19" r="8.9" />
    <circle class="b" cx="200.72" cy="345.14" r="8.9" />
    <circle class="b" cx="220.78" cy="365.14" r="8.9" />
    <circle class="b" cx="241.37" cy="385.39" r="8.9" />
    <circle class="b" cx="263.92" cy="408.79" r="8.9" />
    <circle class="b" cx="310.57" cy="408.79" r="8.9" />
    <circle class="b" cx="339.57" cy="408.79" r="8.9" />
    <circle class="b" cx="368.57" cy="408.79" r="8.9" />
    <circle class="b" cx="397.57" cy="408.79" r="8.9" />
    <circle class="b" cx="426.57" cy="408.79" r="8.9" />
    <circle class="b" cx="455.57" cy="408.79" r="8.9" />
    <circle class="b" cx="484.57" cy="408.79" r="8.9" />
    <circle class="b" cx="513.57" cy="408.79" r="8.9" />
    <circle class="b" cx="542.57" cy="408.79" r="8.9" />
    <circle class="b" cx="571.57" cy="408.79" r="8.9" />
    <circle class="b" cx="600.57" cy="408.79" r="8.9" />
    <circle class="b" cx="658.57" cy="408.79" r="8.9" />
    <circle class="b" cx="687.57" cy="408.79" r="8.9" />
    <circle class="b" cx="716.57" cy="408.79" r="8.9" />
    <circle class="b" cx="745.57" cy="408.79" r="8.9" />
    <circle class="b" cx="774.57" cy="408.79" r="8.9" />
    <circle class="b" cx="803.57" cy="408.79" r="8.9" />
    <circle class="b" cx="832.57" cy="408.79" r="8.9" />
    <circle class="b" cx="861.57" cy="408.79" r="8.9" />
    <circle class="b" cx="890.57" cy="408.79" r="8.9" />
    <circle class="b" cx="919.57" cy="408.79" r="8.9" />
    <circle class="b" cx="948.57" cy="408.79" r="8.9" />
    <circle class="b" cx="1003.6" cy="408.79" r="8.9" />
    <circle class="b" cx="1025.24" cy="389.24" r="8.9" />
    <circle class="b" cx="1045" cy="369.85" r="8.9" />
    <circle class="b" cx="1066.3" cy="346.29" r="8.9" />
    <circle class="b" cx="1083.22" cy="328.29" r="8.9" />
    <circle class="b" cx="1101.02" cy="310.49" r="8.9" />
    <circle class="b" cx="1123.79" cy="287.43" r="8.9" />
    <circle class="b" cx="1145.67" cy="265.43" r="8.9" />
    <circle class="b" cx="1164.79" cy="244.57" r="8.9" />
    <circle class="b" cx="1183.9" cy="225.34" r="8.9" />
    <circle class="b" cx="48.2" cy="226.51" r="8.9" />
    <circle class="b" cx="68.53" cy="247.46" r="8.9" />
    <circle class="b" cx="91.3" cy="271.14" r="8.9" />
    <circle class="b" cx="115.44" cy="296.33" r="8.9" />
    <circle class="b" cx="139.13" cy="319.8" r="8.9" />
    <circle class="b" cx="161.43" cy="339.99" r="8.9" />
    <circle class="b" cx="183.84" cy="364.09" r="8.9" />
    <circle class="b" cx="207.74" cy="388.65" r="8.9" />
    <circle class="b" cx="232.47" cy="413.48" r="8.9" />
    <circle class="b" cx="260.42" cy="441.09" r="8.9" />
    <circle class="b" cx="310.57" cy="441.09" r="8.9" />
    <circle class="b" cx="339.57" cy="441.09" r="8.9" />
    <circle class="b" cx="368.57" cy="441.09" r="8.9" />
    <circle class="b" cx="397.57" cy="441.09" r="8.9" />
    <circle class="b" cx="426.57" cy="441.09" r="8.9" />
    <circle class="b" cx="455.57" cy="441.09" r="8.9" />
    <circle class="b" cx="484.57" cy="441.09" r="8.9" />
    <circle class="b" cx="513.57" cy="441.09" r="8.9" />
    <circle class="b" cx="542.57" cy="441.09" r="8.9" />
    <circle class="b" cx="571.57" cy="441.09" r="8.9" />
    <circle class="b" cx="600.57" cy="441.09" r="8.9" />
    <circle class="b" cx="658.57" cy="441.09" r="8.9" />
    <circle class="b" cx="687.57" cy="441.09" r="8.9" />
    <circle class="b" cx="716.57" cy="441.09" r="8.9" />
    <circle class="b" cx="745.57" cy="441.09" r="8.9" />
    <circle class="b" cx="774.57" cy="441.09" r="8.9" />
    <circle class="b" cx="803.57" cy="441.09" r="8.9" />
    <circle class="b" cx="832.57" cy="441.09" r="8.9" />
    <circle class="b" cx="861.57" cy="441.09" r="8.9" />
    <circle class="b" cx="890.57" cy="441.09" r="8.9" />
    <circle class="b" cx="919.57" cy="441.09" r="8.9" />
    <circle class="b" cx="948.57" cy="441.09" r="8.9" />
    <circle class="b" cx="1013.73" cy="441.09" r="8.9" />
    <circle class="b" cx="1039.25" cy="419.44" r="8.9" />
    <circle class="b" cx="1062.7" cy="393.59" r="8.9" />
    <circle class="b" cx="1084.13" cy="370.45" r="8.9" />
    <circle class="b" cx="1108.13" cy="345.39" r="8.9" />
    <circle class="b" cx="1132.44" cy="321.69" r="8.9" />
    <circle class="b" cx="1155.56" cy="298.01" r="8.9" />
    <circle class="b" cx="1179.4" cy="274.57" r="8.9" />
    <circle class="b" cx="1202.58" cy="251.32" r="8.9" />
    <circle class="b" cx="1227.63" cy="229.98" r="8.9" />
    <path class="c" d="M49.7,491H46.17l-.72,2H44.16l3.07-8.51h1.41L51.71,493H50.42Zm-.42-1.19-1.35-3.7-1.33,3.7Z" transform="translate(0.26)" />
    <path
        class="c"
        d="M72.35,490.55c0,1.55-1.17,2.41-3,2.41H66.61v-8.51h2.56c1.77,0,2.7.93,2.7,2.25a2.07,2.07,0,0,1-.9,1.72A2.41,2.41,0,0,1,72.35,490.55Zm-4.49-2.65h1.31c.92,0,1.44-.35,1.44-1.14s-.52-1.12-1.44-1.12H67.86Zm3.23,2.58c0-.81-.59-1.39-1.68-1.39H67.86v2.69h1.49C70.5,491.78,71.09,491.31,71.09,490.48Z"
        transform="translate(0.26)"
    />
    <path class="c" d="M92.06,485.39a3.2,3.2,0,0,0,0,6.39,3.29,3.29,0,0,0,2.35-.93v1.27a3.67,3.67,0,0,1-2.49.84,4.38,4.38,0,0,1,0-8.75,3.73,3.73,0,0,1,2.49.84v1.27A3.21,3.21,0,0,0,92.06,485.39Z" transform="translate(0.26)" />
    <path class="c" d="M119.79,488.71a4,4,0,0,1-4.06,4.25h-2.84v-8.51h2.84A4,4,0,0,1,119.79,488.71Zm-1.24,0a2.79,2.79,0,0,0-2.82-3.07h-1.58v6.14h1.58A2.8,2.8,0,0,0,118.55,488.71Z" transform="translate(0.26)" />
    <path class="c" d="M137.78,485.64V488h2.67v1.18h-2.67v2.6h3.42V493h-4.67v-8.51h4.67v1.19Z" transform="translate(0.26)" />
    <path class="c" d="M160.08,485.64V488H163v1.19h-2.91V493h-1.24v-8.51h4.66v1.19Z" transform="translate(0.26)" />
    <path
        class="c"
        d="M187.82,488.2c0,2.93-1.73,4.76-4.27,4.76a4.38,4.38,0,0,1,.13-8.75A4,4,0,0,1,187,486l-.95.73a2.85,2.85,0,0,0-2.41-1.31,3.08,3.08,0,0,0-3.09,3.2,3,3,0,0,0,3,3.19,2.88,2.88,0,0,0,2.94-2.39h-3.24V488.2Z"
        transform="translate(0.26)"
    />
    <path class="c" d="M210.86,484.45V493H209.6v-3.67h-4.24V493H204.1v-8.51h1.26v3.66h4.24v-3.66Z" transform="translate(0.26)" />
    <path class="c" d="M231.59,484.45h1.24V493h-1.24Z" transform="translate(0.26)" />
    <path class="c" d="M254.77,491.78c.64,0,1.11-.32,1.11-1.46v-6h1.25v6c0,1.82-1,2.64-2.32,2.64a2.31,2.31,0,0,1-2.42-2.4h1.25A1.1,1.1,0,0,0,254.77,491.78Z" transform="translate(0.26)" />
    <path class="c" d="M310.11,488.37l3.42,4.59h-1.47l-2.76-3.65-1,1.08V493h-1.25v-8.51h1.25v4.09l3.58-4.09h1.61Z" transform="translate(0.26)" />
    <path class="c" d="M341.67,491.46v1.19H337v-8.51h1.24v7.32Z" transform="translate(0.26)" />
    <path class="c" d="M372.69,484.14v8.51h-1.26V486.4l-2.85,4.6H368l-2.85-4.6v6.25h-1.26v-8.51h1.26l3.11,5,3.13-5Z" transform="translate(0.26)" />
    <path class="c" d="M400.85,484.14v8.51H399.6l-4.58-6.4v6.4h-1.25v-8.51H395l4.58,6.4v-6.4Z" transform="translate(0.26)" />
    <path class="c" d="M422,488.39a4.32,4.32,0,1,1,4.32,4.38A4.32,4.32,0,0,1,422,488.39Zm7.38,0a3.07,3.07,0,1,0-3.06,3.19A3.1,3.1,0,0,0,429.37,488.39Z" transform="translate(0.26)" />
    <path class="c" d="M458.31,487a2.81,2.81,0,0,1-3.05,2.84h-1.69v2.82h-1.26v-8.51h2.95A2.81,2.81,0,0,1,458.31,487Zm-1.24,0a1.61,1.61,0,0,0-1.81-1.67h-1.69v3.34h1.69A1.61,1.61,0,0,0,457.07,487Z" transform="translate(0.26)" />
    <path class="c" d="M487.8,493.23l-1.15-1.17a4.25,4.25,0,0,1-2.38.71,4.38,4.38,0,1,1,4.32-4.38,4.45,4.45,0,0,1-1,2.86l1.1,1.11Zm-2-2-1.18-1.2.85-.85,1.22,1.23a3.29,3.29,0,0,0,.65-2,3,3,0,1,0-1.54,2.8Z" transform="translate(0.26)" />
    <path class="c" d="M513.21,489.89h-1.68v2.76h-1.26v-8.51h3.12a2.82,2.82,0,0,1,2.89,2.88,2.77,2.77,0,0,1-1.79,2.67l1.86,3h-1.41Zm-1.68-1.18h1.86a1.7,1.7,0,0,0,0-3.39h-1.86Z" transform="translate(0.26)" />
    <path
        class="c"
        d="M540.83,490.18a1.45,1.45,0,0,0,1.56,1.4c.89,0,1.39-.45,1.39-1.06,0-.78-.73-1.17-1.73-1.68-1.59-.9-2.29-1.49-2.29-2.69a2.26,2.26,0,0,1,2.47-2.13,2.46,2.46,0,0,1,2.51,2.47h-1.25a1.26,1.26,0,0,0-1.26-1.29,1.1,1.1,0,0,0-1.22,1c0,.77.59,1,1.49,1.51,1.54.82,2.54,1.54,2.54,2.85s-1.18,2.21-2.65,2.21a2.68,2.68,0,0,1-2.81-2.59Z"
        transform="translate(0.26)"
    />
    <path class="c" d="M576.66,485.32h-2v7.33h-1.25v-7.33h-2.05v-1.18h5.35Z" transform="translate(0.26)" />
    <path class="c" d="M600.32,492.77c-2.08,0-3.37-1.15-3.37-3.69v-4.94h1.26v4.94c0,1.83.8,2.5,2.11,2.5s2.11-.67,2.11-2.5v-4.94h1.24v4.94C603.67,491.62,602.38,492.77,600.32,492.77Z" transform="translate(0.26)" />
    <path class="c" d="M662,484.26,659,492.77h-1.46l-2.93-8.51H656l2.35,7,2.37-7Z" transform="translate(0.26)" />
    <path class="c" d="M693.55,484.26l-2.7,8.51h-1.48l-2.07-6.49-2,6.49h-1.48l-2.7-8.51h1.28l2.16,6.87,2.16-6.87H688l2.16,6.87,2.16-6.87Z" transform="translate(0.26)" />
    <path class="c" d="M717.07,488.51l3.22,4.26h-1.53l-2.46-3.25-2.44,3.25h-1.53l3.22-4.26-3.22-4.25h1.53l2.44,3.25,2.46-3.25h1.53Z" transform="translate(0.26)" />
    <path class="c" d="M749,484.26l-3.1,5v3.48h-1.24v-3.48l-3.1-5H743l2.3,3.74,2.3-3.74Z" transform="translate(0.26)" />
    <path class="c" d="M778.2,485.44l-4.94,6.14h4.94v1.19h-6.57v-1.19l4.94-6.14h-4.94v-1.18h6.57Z" transform="translate(0.26)" />
    <path class="c" d="M798.72,490.78H795.2l-.72,2h-1.3l3.07-8.51h1.42l3.07,8.51h-1.3Zm-.42-1.19-1.34-3.7-1.33,3.7Z" transform="translate(0.26)" />
    <path class="c" d="M808.48,490.78H805l-.72,2h-1.29l3.07-8.51h1.41l3.07,8.51H809.2Zm-.42-1.19-1.34-3.7-1.34,3.7Z" transform="translate(0.26)" />
    <path class="c" d="M830.05,490.78h-3.52l-.72,2h-1.3l3.07-8.51H829l3.07,8.51h-1.3Zm-.42-1.19-1.34-3.7-1.33,3.7Z" transform="translate(0.26)" />
    <path
        class="c"
        d="M840.11,490.36c0,1.55-1.17,2.41-3,2.41h-2.73v-8.51h2.55c1.77,0,2.7.93,2.7,2.25a2.07,2.07,0,0,1-.9,1.72A2.41,2.41,0,0,1,840.11,490.36Zm-4.49-2.65h1.31c.92,0,1.44-.35,1.44-1.14s-.52-1.13-1.44-1.13h-1.31Zm3.23,2.58c0-.82-.59-1.39-1.68-1.39h-1.55v2.68h1.49C838.26,491.58,838.85,491.12,838.85,490.29Z"
        transform="translate(0.26)"
    />
    <path class="c" d="M859,490.66h-3.53l-.72,2h-1.3l3.07-8.51h1.42l3.07,8.51h-1.3Zm-.42-1.19-1.35-3.7-1.33,3.7Z" transform="translate(0.26)" />
    <path class="c" d="M866.84,485.2a3.19,3.19,0,0,0,0,6.38,3.33,3.33,0,0,0,2.35-.92v1.27a3.76,3.76,0,0,1-2.5.84,4.38,4.38,0,0,1,0-8.75,3.7,3.7,0,0,1,2.5.84v1.27A3.25,3.25,0,0,0,866.84,485.2Z" transform="translate(0.26)" />
    <path class="c" d="M887.54,490.78H884l-.72,2H882l3.07-8.51h1.41l3.07,8.51h-1.29Zm-.42-1.19-1.35-3.7-1.33,3.7Z" transform="translate(0.26)" />
    <path class="c" d="M898.62,488.51a4,4,0,0,1-4.06,4.26h-2.84v-8.51h2.84A4,4,0,0,1,898.62,488.51Zm-1.24,0a2.8,2.8,0,0,0-2.82-3.07H893v6.14h1.58A2.8,2.8,0,0,0,897.38,488.51Z" transform="translate(0.26)" />
    <path class="c" d="M917.65,490.78h-3.52l-.72,2h-1.3l3.07-8.51h1.42l3.07,8.51h-1.3Zm-.42-1.19-1.34-3.7-1.33,3.7Z" transform="translate(0.26)" />
    <path class="c" d="M923.09,485.44v2.37h2.66V489h-2.66v2.59h3.42v1.19h-4.68v-8.51h4.68v1.18Z" transform="translate(0.26)" />
    <path class="c" d="M946.68,490.78h-3.52l-.72,2h-1.3l3.07-8.51h1.42l3.07,8.51h-1.3Zm-.42-1.19-1.34-3.7-1.33,3.7Z" transform="translate(0.26)" />
    <path class="c" d="M952.06,485.44v2.4H955V489h-2.9v3.74h-1.25v-8.51h4.67v1.18Z" transform="translate(0.26)" />
    <path class="c" d="M1010.27,490.66h-3.53l-.72,2h-1.29l3.07-8.51h1.41l3.07,8.51H1011Zm-.42-1.19-1.35-3.7-1.33,3.7Z" transform="translate(0.26)" />
    <path
        class="c"
        d="M1022.2,488c0,2.93-1.72,4.76-4.27,4.76a4.38,4.38,0,0,1,.14-8.75,4,4,0,0,1,3.35,1.76l-.94.73a2.88,2.88,0,0,0-2.41-1.31,3.09,3.09,0,0,0-3.1,3.19,3,3,0,0,0,3,3.19,2.87,2.87,0,0,0,2.94-2.38h-3.24V488Z"
        transform="translate(0.26)"
    />
    <path class="c" d="M1036.28,490.78h-3.52l-.72,2h-1.3l3.07-8.51h1.42l3.07,8.51H1037Zm-.42-1.19-1.34-3.7-1.33,3.7Z" transform="translate(0.26)" />
    <path class="c" d="M1047.23,484.26v8.51H1046V489.1h-4.25v3.67h-1.26v-8.51h1.26v3.65H1046v-3.65Z" transform="translate(0.26)" />
    <path class="c" d="M1062.46,490.78h-3.52l-.72,2h-1.3l3.07-8.51h1.42l3.07,8.51h-1.3Zm-.42-1.19-1.34-3.7-1.33,3.7Z" transform="translate(0.26)" />
    <path class="c" d="M1066.71,484.26H1068v8.51h-1.25Z" transform="translate(0.26)" />
    <path class="c" d="M1082.43,490.66h-3.53l-.72,2h-1.29l3.07-8.51h1.41l3.07,8.51h-1.29Zm-.42-1.19-1.35-3.7-1.33,3.7Z" transform="translate(0.26)" />
    <path class="c" d="M1088.48,491.58c.64,0,1.11-.31,1.11-1.45v-6h1.25v6c0,1.81-1,2.64-2.32,2.64a2.31,2.31,0,0,1-2.42-2.4h1.25A1.09,1.09,0,0,0,1088.48,491.58Z" transform="translate(0.26)" />
    <path class="c" d="M1105.29,490.78h-3.53l-.72,2h-1.29l3.07-8.51h1.41l3.07,8.51H1106Zm-.42-1.19-1.34-3.7-1.34,3.7Z" transform="translate(0.26)" />
    <path class="c" d="M1112.56,488.18l3.42,4.59h-1.47l-2.76-3.66-1,1.08v2.58h-1.25v-8.51h1.25v4.09l3.58-4.09H1116Z" transform="translate(0.26)" />
    <path class="c" d="M1130.4,490.78h-3.53l-.72,2h-1.29l3.07-8.51h1.41l3.07,8.51h-1.29Zm-.42-1.19-1.34-3.7-1.34,3.7Z" transform="translate(0.26)" />
    <path class="c" d="M1139.49,491.58v1.19h-4.72v-8.51H1136v7.32Z" transform="translate(0.26)" />
    <path class="c" d="M1151.49,490.78H1148l-.72,2H1146l3.07-8.51h1.42l3.07,8.51h-1.3Zm-.42-1.19-1.34-3.7-1.33,3.7Z" transform="translate(0.26)" />
    <path class="c" d="M1164.64,484.26v8.51h-1.26v-6.25l-2.85,4.6H1160l-2.86-4.6v6.25h-1.26v-8.51h1.26l3.12,5,3.13-5Z" transform="translate(0.26)" />
    <path class="c" d="M1176.24,490.78h-3.52l-.72,2h-1.3l3.07-8.51h1.42l3.07,8.51H1177Zm-.42-1.19-1.34-3.7-1.33,3.7Z" transform="translate(0.26)" />
    <path class="c" d="M1187.57,484.26v8.51h-1.25l-4.58-6.4v6.4h-1.25v-8.51h1.25l4.58,6.4v-6.4Z" transform="translate(0.26)" />
    <path class="c" d="M1199,490.66h-3.52l-.72,2h-1.3l3.07-8.51H1198l3.07,8.51h-1.3Zm-.42-1.19-1.34-3.7-1.33,3.7Z" transform="translate(0.26)" />
    <path class="c" d="M1202.5,488.39a4.32,4.32,0,1,1,4.32,4.38A4.31,4.31,0,0,1,1202.5,488.39Zm7.38,0a3.07,3.07,0,1,0-3.06,3.19A3.1,3.1,0,0,0,1209.88,488.39Z" transform="translate(0.26)" />
    <path class="c" d="M1225,490.78h-3.52l-.72,2h-1.3l3.07-8.51H1224l3.07,8.51h-1.3Zm-.42-1.19-1.34-3.7-1.33,3.7Z" transform="translate(0.26)" />
    <path class="c" d="M1235.23,487.11a2.81,2.81,0,0,1-3.06,2.84h-1.69v2.82h-1.26v-8.51h3A2.81,2.81,0,0,1,1235.23,487.11Zm-1.25,0a1.61,1.61,0,0,0-1.81-1.67h-1.69v3.34h1.69A1.61,1.61,0,0,0,1234,487.11Z" transform="translate(0.26)" />
</svg>
