<?xml version="1.0" encoding="utf-8"?>
<!-- Generator: Adobe Illustrator 24.3.0, SVG Export Plug-In . SVG Version: 6.00 Build 0)  -->
<svg version="1.1" id="Capa_1" xmlns="http://www.w3.org/2000/svg" xmlns:xlink="http://www.w3.org/1999/xlink" x="0px" y="0px"
	 viewBox="0 0 1280 720" style="enable-background:new 0 0 1280 720;" xml:space="preserve">
<style type="text/css">
	.st0{fill:#F39200;}
	.st1{fill:none;}
	.st2{fill:#6B6B6B;}
</style>
<circle class="st0" cx="200.5" cy="287.4" r="8.9"/>
<circle class="st0" cx="223.3" cy="309.2" r="8.9"/>
<circle class="st0" cx="245.9" cy="333.3" r="8.9"/>
<circle class="st0" cx="266.8" cy="354.6" r="8.9"/>
<circle class="st0" cx="310.3" cy="354.6" r="8.9"/>
<circle class="st0" cx="339.3" cy="354.6" r="8.9"/>
<circle class="st0" cx="368.3" cy="354.6" r="8.9"/>
<circle class="st0" cx="397.3" cy="354.6" r="8.9"/>
<circle class="st0" cx="426.3" cy="354.6" r="8.9"/>
<circle class="st0" cx="455.3" cy="354.6" r="8.9"/>
<circle class="st0" cx="484.3" cy="354.6" r="8.9"/>
<ellipse transform="matrix(0.3162 -0.9487 0.9487 0.3162 14.5331 729.4338)" class="st0" cx="513.3" cy="354.6" rx="8.9" ry="8.9"/>
<circle class="st0" cx="542.3" cy="354.6" r="8.9"/>
<circle class="st0" cx="571.3" cy="354.6" r="8.9"/>
<circle class="st0" cx="600.3" cy="354.6" r="8.9"/>
<circle class="st0" cx="658.3" cy="354.6" r="8.9"/>
<circle class="st0" cx="687.3" cy="354.6" r="8.9"/>
<circle class="st0" cx="716.3" cy="354.6" r="8.9"/>
<circle class="st0" cx="745.3" cy="354.6" r="8.9"/>
<circle class="st0" cx="774.3" cy="354.6" r="8.9"/>
<circle class="st0" cx="803.3" cy="354.6" r="8.9"/>
<circle class="st0" cx="832.3" cy="354.6" r="8.9"/>
<circle class="st0" cx="861.3" cy="354.6" r="8.9"/>
<circle class="st0" cx="890.3" cy="354.6" r="8.9"/>
<circle class="st0" cx="919.3" cy="354.6" r="8.9"/>
<circle class="st0" cx="948.3" cy="354.6" r="8.9"/>
<circle class="st0" cx="994.4" cy="354.6" r="8.9"/>
<ellipse transform="matrix(0.3827 -0.9239 0.9239 0.3827 319.3241 1144.4763)" class="st0" cx="1016.1" cy="333.3" rx="8.9" ry="8.9"/>
<circle class="st0" cx="1039.3" cy="309.2" r="8.9"/>
<circle class="st0" cx="1060.5" cy="287.4" r="8.9"/>
<circle class="st0" cx="152.4" cy="274.5" r="8.9"/>
<circle class="st0" cx="174.3" cy="297.5" r="8.9"/>
<circle class="st0" cx="196.8" cy="321.3" r="8.9"/>
<circle class="st0" cx="220.1" cy="342.2" r="8.9"/>
<circle class="st0" cx="241.1" cy="363.5" r="8.9"/>
<circle class="st0" cx="263.7" cy="386.9" r="8.9"/>
<circle class="st0" cx="310.3" cy="386.9" r="8.9"/>
<circle class="st0" cx="339.3" cy="386.9" r="8.9"/>
<circle class="st0" cx="368.3" cy="386.9" r="8.9"/>
<circle class="st0" cx="397.3" cy="386.9" r="8.9"/>
<circle class="st0" cx="426.3" cy="386.9" r="8.9"/>
<circle class="st0" cx="455.3" cy="386.9" r="8.9"/>
<circle class="st0" cx="484.3" cy="386.9" r="8.9"/>
<ellipse transform="matrix(0.3162 -0.9487 0.9487 0.3162 -16.1095 751.52)" class="st0" cx="513.3" cy="386.9" rx="8.9" ry="8.9"/>
<circle class="st0" cx="542.3" cy="386.9" r="8.9"/>
<circle class="st0" cx="571.3" cy="386.9" r="8.9"/>
<circle class="st0" cx="600.3" cy="386.9" r="8.9"/>
<circle class="st0" cx="658.3" cy="386.9" r="8.9"/>
<circle class="st0" cx="687.3" cy="386.9" r="8.9"/>
<circle class="st0" cx="716.3" cy="386.9" r="8.9"/>
<circle class="st0" cx="745.3" cy="386.9" r="8.9"/>
<circle class="st0" cx="774.3" cy="386.9" r="8.9"/>
<circle class="st0" cx="803.3" cy="386.9" r="8.9"/>
<circle class="st0" cx="832.3" cy="386.9" r="8.9"/>
<circle class="st0" cx="861.3" cy="386.9" r="8.9"/>
<circle class="st0" cx="890.3" cy="386.9" r="8.9"/>
<circle class="st0" cx="919.3" cy="386.9" r="8.9"/>
<circle class="st0" cx="948.3" cy="386.9" r="8.9"/>
<circle class="st0" cx="1003.3" cy="386.9" r="8.9"/>
<circle class="st0" cx="1026.9" cy="363.5" r="8.9"/>
<circle class="st0" cx="1048.2" cy="342.2" r="8.9"/>
<circle class="st0" cx="1070.2" cy="321.3" r="8.9"/>
<circle class="st0" cx="1091.9" cy="297.5" r="8.9"/>
<circle class="st0" cx="1114.6" cy="274.5" r="8.9"/>
<rect class="st1" width="1280" height="720"/>
<g>
	<path class="st2" d="M151.3,427.8v2.4h2.7v1.2h-2.7v2.6h3.4v1.2H150v-8.5h4.7v1.2h-3.4V427.8z"/>
	<path class="st2" d="M175.6,427.8v2.4h2.9v1.2h-2.9v3.7h-1.2v-8.5h4.7v1.2L175.6,427.8L175.6,427.8z"/>
	<path class="st2" d="M202.4,430.4c0,2.9-1.7,4.8-4.3,4.8c-2.4,0-4.2-2-4.2-4.4s1.8-4.4,4.3-4.4c1.5,0,2.6,0.7,3.4,1.8l-0.9,0.7
		c-0.5-0.7-1.3-1.3-2.4-1.3c-1.8,0-3.1,1.4-3.1,3.2c0,1.8,1.2,3.2,3,3.2c1.6,0,2.7-1,2.9-2.4h-3.2v-1.2L202.4,430.4L202.4,430.4z"/>
	<path class="st2" d="M223.5,426.6v8.5h-1.3v-3.7H218v3.7h-1.3v-8.5h1.3v3.7h4.2v-3.7H223.5z"/>
	<path class="st2" d="M240.5,426.6h1.2v8.5h-1.2V426.6z"/>
	<path class="st2" d="M263.7,434c0.6,0,1.1-0.3,1.1-1.5v-6h1.2v6c0,1.8-1,2.6-2.3,2.6c-1.1,0-2.4-0.7-2.4-2.4h1.2
		C262.5,433.5,263,434,263.7,434z"/>
	<path class="st2" d="M310.1,430.6l3.4,4.6H312l-2.8-3.7l-1,1.1v2.6H307v-8.5h1.2v4.1l3.6-4.1h1.6L310.1,430.6z"/>
	<path class="st2" d="M341.7,434v1.2H337v-8.5h1.2v7.3H341.7z"/>
	<path class="st2" d="M372.7,426.6v8.5h-1.3v-6.2l-2.9,4.6H368l-2.9-4.6v6.2h-1.3v-8.5h1.3l3.1,5l3.1-5H372.7z"/>
	<path class="st2" d="M400.8,426.6v8.5h-1.2l-4.6-6.4v6.4h-1.2v-8.5h1.2l4.6,6.4v-6.4H400.8z"/>
	<path class="st2" d="M422,430.8c0-2.4,1.9-4.4,4.3-4.4s4.3,2,4.3,4.4s-1.9,4.4-4.3,4.4C423.9,435.1,422,433.2,422,430.8z
		 M429.4,430.8c0-1.7-1.3-3.2-3.1-3.2c-1.8,0-3.1,1.5-3.1,3.2s1.3,3.2,3.1,3.2S429.4,432.5,429.4,430.8z"/>
	<path class="st2" d="M458.3,429.5c0,1.8-1.4,2.8-3.1,2.8h-1.7v2.8h-1.3v-8.5h3C456.9,426.6,458.3,427.6,458.3,429.5z M457.1,429.5
		c0-1.1-0.8-1.7-1.8-1.7h-1.7v3.3h1.7C456.3,431.2,457.1,430.6,457.1,429.5z"/>
	<path class="st2" d="M485.5,435.1l-1.2-1.2c-0.7,0.4-1.5,0.7-2.4,0.7c-2.4,0-4.3-2-4.3-4.4s1.9-4.4,4.3-4.4s4.3,2,4.3,4.4
		c0,1.1-0.4,2.1-1,2.9l1.1,1.1L485.5,435.1z M483.4,433.1l-1.2-1.2l0.9-0.9l1.2,1.2c0.4-0.6,0.6-1.2,0.6-2c0-1.7-1.3-3.2-3.1-3.2
		c-1.8,0-3.1,1.5-3.1,3.2s1.3,3.2,3.1,3.2C482.5,433.5,483,433.4,483.4,433.1z"/>
	<path class="st2" d="M516.4,432.4h-1.7v2.8h-1.3v-8.5h3.1c1.5,0,2.9,1.1,2.9,2.9c0,1.3-0.8,2.3-1.8,2.7l1.9,3h-1.4L516.4,432.4z
		 M514.7,431.2h1.9c0.9,0,1.6-0.6,1.6-1.7s-0.8-1.7-1.6-1.7h-1.9V431.2z"/>
	<path class="st2" d="M541.1,432.6c0.1,1,0.8,1.4,1.6,1.4c0.9,0,1.4-0.5,1.4-1.1c0-0.8-0.7-1.2-1.7-1.7c-1.6-0.9-2.3-1.5-2.3-2.7
		c0-1.3,1.1-2.1,2.5-2.1c1.5,0,2.5,1.1,2.5,2.5h-1.2c0-0.8-0.6-1.3-1.3-1.3s-1.2,0.4-1.2,1c0,0.8,0.6,1,1.5,1.5
		c1.5,0.8,2.5,1.5,2.5,2.9s-1.2,2.2-2.7,2.2c-1.7,0-2.8-1.2-2.8-2.6L541.1,432.6L541.1,432.6z"/>
	<path class="st2" d="M574.1,427.8H572v7.3h-1.2v-7.3h-2.1v-1.2h5.3L574.1,427.8L574.1,427.8z"/>
	<path class="st2" d="M600.3,435.5c-2.1,0-3.4-1.2-3.4-3.7v-4.9h1.3v4.9c0,1.8,0.8,2.5,2.1,2.5s2.1-0.7,2.1-2.5v-4.9h1.2v4.9
		C603.7,434.3,602.4,435.5,600.3,435.5z"/>
	<path class="st2" d="M662,426.9l-2.9,8.5h-1.5l-2.9-8.5h1.3l2.3,7l2.4-7H662z"/>
	<path class="st2" d="M693.6,426.9l-2.7,8.5h-1.5l-2.1-6.5l-2.1,6.5h-1.5l-2.7-8.5h1.3l2.2,6.9l2.2-6.9h1.3l2.2,6.9l2.2-6.9H693.6z"
		/>
	<path class="st2" d="M717.1,431.2l3.2,4.3h-1.5l-2.5-3.2l-2.4,3.2h-1.5l3.2-4.3l-3.2-4.3h1.5l2.4,3.3l2.5-3.3h1.5L717.1,431.2z"/>
	<path class="st2" d="M749,426.9l-3.1,5v3.5h-1.2V432l-3.1-5h1.4l2.3,3.7l2.3-3.7h1.4V426.9z"/>
	<path class="st2" d="M777.6,428.1l-4.9,6.1h4.9v1.2H771v-1.2l4.9-6.1H771v-1.2h6.6V428.1z"/>
	<g>
		<path class="st2" d="M800.2,433.5h-3.5l-0.7,2h-1.3l3.1-8.5h1.4l3.1,8.5H801L800.2,433.5z M799.8,432.3l-1.3-3.7l-1.3,3.7H799.8z"
			/>
		<path class="st2" d="M810,433.5h-3.5l-0.7,2h-1.3l3.1-8.5h1.4l3.1,8.5h-1.3L810,433.5z M809.5,432.3l-1.3-3.7l-1.3,3.7H809.5z"/>
	</g>
	<g>
		<path class="st2" d="M829.9,433.5h-3.5l-0.7,2h-1.3l3.1-8.5h1.4l3.1,8.5h-1.3L829.9,433.5z M829.5,432.3l-1.3-3.7l-1.3,3.7H829.5z
			"/>
		<path class="st2" d="M840,433c0,1.5-1.2,2.4-3,2.4h-2.7v-8.5h2.6c1.8,0,2.7,0.9,2.7,2.3c0,0.7-0.3,1.3-0.9,1.7
			C839.4,431.3,840,432.1,840,433z M835.5,430.4h1.3c0.9,0,1.4-0.3,1.4-1.1c0-0.7-0.5-1.1-1.4-1.1h-1.3V430.4z M838.7,433
			c0-0.8-0.6-1.4-1.7-1.4h-1.5v2.7h1.5C838.1,434.3,838.7,433.8,838.7,433z"/>
	</g>
	<g>
		<path class="st2" d="M859,433.3h-3.5l-0.7,2h-1.3l3.1-8.5h1.4l3.1,8.5h-1.3L859,433.3z M858.6,432.2l-1.3-3.7l-1.3,3.7H858.6z"/>
		<path class="st2" d="M866.8,427.9c-1.7,0-3.2,1.3-3.2,3.2s1.4,3.2,3.2,3.2c1.2,0,2-0.6,2.4-0.9v1.3c-0.4,0.4-1.2,0.8-2.5,0.8
			c-2.4,0-4.3-1.9-4.3-4.4s1.9-4.4,4.3-4.4c1.2,0,2.1,0.5,2.5,0.8v1.3C868.8,428.4,868,427.9,866.8,427.9z"/>
	</g>
	<g>
		<g>
			<path class="st2" d="M887.5,433.5H884l-0.7,2H882l3.1-8.5h1.4l3.1,8.5h-1.3L887.5,433.5z M887.1,432.3l-1.3-3.7l-1.3,3.7H887.1z"
				/>
		</g>
		<path class="st2" d="M898.6,431.2c0,2.4-1.6,4.3-4.1,4.3h-2.8V427h2.8C897,426.9,898.6,428.8,898.6,431.2z M897.4,431.2
			c0-1.9-1.2-3.1-2.8-3.1H893v6.1h1.6C896.2,434.3,897.4,433.1,897.4,431.2z"/>
	</g>
	<g>
		<path class="st2" d="M917.7,433.5h-3.5l-0.7,2h-1.3l3.1-8.5h1.4l3.1,8.5h-1.3L917.7,433.5z M917.2,432.3l-1.3-3.7l-1.3,3.7H917.2z
			"/>
		<path class="st2" d="M923.1,428.1v2.4h2.7v1.2h-2.7v2.6h3.4v1.2h-4.7V427h4.7v1.2h-3.4V428.1z"/>
	</g>
	<g>
		<path class="st2" d="M946.7,433.5h-3.5l-0.7,2h-1.3l3.1-8.5h1.4l3.1,8.5h-1.3L946.7,433.5z M946.3,432.3l-1.3-3.7l-1.3,3.7H946.3z
			"/>
		<path class="st2" d="M952.1,428.1v2.4h2.9v1.2h-2.9v3.7h-1.2v-8.5h4.7v1.2L952.1,428.1L952.1,428.1z"/>
	</g>
	<g>
		<path class="st2" d="M1000.1,433.3h-3.5l-0.7,2h-1.3l3.1-8.5h1.4l3.1,8.5h-1.3L1000.1,433.3z M999.7,432.2l-1.3-3.7l-1.3,3.7
			H999.7z"/>
		<path class="st2" d="M1012.1,430.7c0,2.9-1.7,4.8-4.3,4.8c-2.4,0-4.2-2-4.2-4.4s1.8-4.4,4.3-4.4c1.5,0,2.6,0.7,3.4,1.8l-0.9,0.7
			c-0.5-0.7-1.3-1.3-2.4-1.3c-1.8,0-3.1,1.4-3.1,3.2c0,1.8,1.2,3.2,3,3.2c1.6,0,2.7-1,2.9-2.4h-3.2v-1.2L1012.1,430.7L1012.1,430.7z
			"/>
	</g>
	<g>
		<path class="st2" d="M1026.6,433.5h-3.5l-0.7,2h-1.3l3.1-8.5h1.4l3.1,8.5h-1.3L1026.6,433.5z M1026.2,432.3l-1.3-3.7l-1.3,3.7
			H1026.2z"/>
		<path class="st2" d="M1037.5,426.9v8.5h-1.3v-3.7h-4.2v3.7h-1.3v-8.5h1.3v3.7h4.2v-3.7H1037.5z"/>
	</g>
	<g>
		<path class="st2" d="M1053.2,433.5h-3.5l-0.7,2h-1.3l3.1-8.5h1.4l3.1,8.5h-1.3L1053.2,433.5z M1052.7,432.3l-1.3-3.7l-1.3,3.7
			H1052.7z"/>
		<path class="st2" d="M1057.4,426.9h1.2v8.5h-1.2V426.9z"/>
	</g>
	<g>
		<path class="st2" d="M1073.4,433.3h-3.5l-0.7,2h-1.3l3.1-8.5h1.4l3.1,8.5h-1.3L1073.4,433.3z M1073,432.2l-1.3-3.7l-1.3,3.7H1073z
			"/>
		<path class="st2" d="M1079.5,434.3c0.6,0,1.1-0.3,1.1-1.5v-6h1.2v6c0,1.8-1,2.6-2.3,2.6c-1.1,0-2.4-0.7-2.4-2.4h1.2
			C1078.3,433.8,1078.8,434.3,1079.5,434.3z"/>
	</g>
	<g>
		<path class="st2" d="M1095.9,433.5h-3.5l-0.7,2h-1.3l3.1-8.5h1.4l3.1,8.5h-1.3L1095.9,433.5z M1095.4,432.3l-1.3-3.7l-1.3,3.7
			H1095.4z"/>
		<path class="st2" d="M1103.1,430.9l3.4,4.6h-1.5l-2.8-3.7l-1,1.1v2.6h-1.2V427h1.2v4.1l3.6-4.1h1.6L1103.1,430.9z"/>
	</g>
	<g>
		<path class="st2" d="M1118.3,433.5h-3.5l-0.7,2h-1.3l3.1-8.5h1.4l3.1,8.5h-1.3L1118.3,433.5z M1117.8,432.3l-1.3-3.7l-1.3,3.7
			H1117.8z"/>
		<path class="st2" d="M1127.4,434.3v1.2h-4.7V427h1.2v7.3H1127.4z"/>
	</g>
</g>
</svg>
