<svg xmlns="http://www.w3.org/2000/svg" viewBox="0 0 1280 720">
        <defs>
            
        </defs>
    
        <circle class="b butaca-zona" cx="116.6" cy="224.04" r="8.9" id="Plat1" data-nombre="C-3" data-position="0"></circle>
        <circle class="b butaca-zona" cx="137.46" cy="244.31" r="8.9" id="Plat2" data-nombre="D-3" data-position="1"></circle>
        <circle class="b butaca-zona" cx="159.12" cy="265.26" r="8.9" id="Plat3" data-nombre="E-3" data-position="2"></circle>
        <circle class="b butaca-zona" cx="179.23" cy="287.43" r="8.9" id="Plat4" data-nombre="F-3" data-position="3"></circle>
        <circle class="b butaca-zona" cx="200.72" cy="309.29" r="8.9" id="Plat5" data-nombre="G-3" data-position="4"></circle>
        <circle class="b butaca-zona" cx="223.57" cy="331.09" r="8.9" id="Plat6" data-nombre="H-3" data-position="5"></circle>
        <circle class="b butaca-zona" cx="246.12" cy="355.19" r="8.9" id="Plat7" data-nombre="I-3" data-position="6"></circle>
        <circle class="b butaca-zona" cx="267.28" cy="376.49" r="8.9" id="Plat8" data-nombre="J-3" data-position="7"></circle>
        <circle class="b butaca-zona" cx="310.57" cy="376.49" r="8.9" id="Plat9" data-nombre="K-3" data-position="8"></circle>
        <circle class="b butaca-zona" cx="339.57" cy="376.49" r="8.9" id="Plat10" data-nombre="L-3" data-position="9"></circle>
        <circle class="b butaca-zona" cx="368.57" cy="376.49" r="8.9" id="Plat11" data-nombre="M-3" data-position="10"></circle>
        <circle class="b butaca-zona" cx="397.57" cy="376.49" r="8.9" id="Plat12" data-nombre="N-3" data-position="11"></circle>
        <circle class="b butaca-zona" cx="426.57" cy="376.49" r="8.9" id="Plat13" data-nombre="O-3" data-position="12"></circle>
        <circle class="b butaca-zona" cx="455.57" cy="376.49" r="8.9" id="Plat14" data-nombre="P-3" data-position="13"></circle>
        <circle class="b butaca-zona" cx="484.57" cy="376.49" r="8.9" id="Plat15" data-nombre="Q-3" data-position="14"></circle>
        <circle class="b butaca-zona" cx="513.57" cy="376.49" r="8.9" id="Plat16" data-nombre="R-3" data-position="15"></circle>
        <circle class="b butaca-zona" cx="542.57" cy="376.49" r="8.9" id="Plat17" data-nombre="S-3" data-position="16"></circle>
        <circle class="b butaca-zona" cx="571.57" cy="376.49" r="8.9" id="Plat18" data-nombre="T-3" data-position="17"></circle>
        <circle class="b butaca-zona" cx="600.57" cy="376.49" r="8.9" id="Plat19" data-nombre="U-3" data-position="18"></circle>
        <circle class="b butaca-zona" cx="658.57" cy="376.49" r="8.9" id="Plat20" data-nombre="V-3" data-position="19"></circle>
        <circle class="b butaca-zona" cx="687.57" cy="376.49" r="8.9" id="Plat21" data-nombre="W-3" data-position="20"></circle>
        <circle class="b butaca-zona" cx="716.57" cy="376.49" r="8.9" id="Plat22" data-nombre="X-3" data-position="21"></circle>
        <circle class="b butaca-zona" cx="745.57" cy="376.49" r="8.9" id="Plat23" data-nombre="Y-3" data-position="22"></circle>
        <circle class="b butaca-zona" cx="774.57" cy="376.49" r="8.9" id="Plat24" data-nombre="Z-3" data-position="23"></circle>
        <circle class="b butaca-zona" cx="803.57" cy="376.49" r="8.9" id="Plat25" data-nombre="AA-3" data-position="24"></circle>
        <circle class="b butaca-zona" cx="832.57" cy="376.49" r="8.9" id="Plat26" data-nombre="AB-3" data-position="25"></circle>
        <circle class="b butaca-zona" cx="861.57" cy="376.49" r="8.9" id="Plat27" data-nombre="AC-3" data-position="26"></circle>
        <circle class="b butaca-zona" cx="890.57" cy="376.49" r="8.9" id="Plat28" data-nombre="AD-3" data-position="27"></circle>
        <circle class="b butaca-zona" cx="919.57" cy="376.49" r="8.9" id="Plat29" data-nombre="AE-3" data-position="28"></circle>
        <circle class="b butaca-zona" cx="948.57" cy="376.49" r="8.9" id="Plat30" data-nombre="AF-3" data-position="29"></circle>
        <circle class="b butaca-zona" cx="994.7" cy="376.49" r="8.9" id="Plat31" data-nombre="AG-3" data-position="30"></circle>
        <circle class="b butaca-zona" cx="1016.34" cy="355.19" r="8.9" id="Plat32" data-nombre="AH-3" data-position="31"></circle>
        <circle class="b butaca-zona" cx="1039.6" cy="331.09" r="8.9" id="Plat33" data-nombre="AI-3" data-position="32"></circle>
        <circle class="b butaca-zona" cx="1060.75" cy="309.29" r="8.9" id="Plat34" data-nombre="AJ-3" data-position="33"></circle>
        <circle class="b butaca-zona" cx="1081.7" cy="287.43" r="8.9" id="Plat35" data-nombre="AK-3" data-position="34"></circle>
        <circle class="b butaca-zona" cx="1102.65" cy="265.6" r="8.9" id="Plat36" data-nombre="AL-3" data-position="35"></circle>
        <circle class="b butaca-zona" cx="1123.79" cy="244.57" r="8.9" id="Plat37" data-nombre="AM-3" data-position="36"></circle>
        <circle class="b butaca-zona" cx="1145.67" cy="223.29" r="8.9" id="Plat38" data-nombre="AN-3" data-position="37"></circle>
        <circle class="b butaca-zona" cx="82.4" cy="224.14" r="8.9" id="Plat39" data-nombre="A-4" data-position="38"></circle>
        <circle class="b butaca-zona" cx="102.99" cy="244.31" r="8.9" id="Plat40" data-nombre="B-4" data-position="39"></circle>
        <circle class="b butaca-zona" cx="121.33" cy="265.26" r="8.9" id="Plat41" data-nombre="C-4" data-position="40"></circle>
        <circle class="b butaca-zona" cx="141.32" cy="285.26" r="8.9" id="Plat42" data-nombre="D-4" data-position="41"></circle>
        <circle class="b butaca-zona" cx="160.28" cy="302.63" r="8.9" id="Plat43" data-nombre="E-4" data-position="42"></circle>
        <circle class="b butaca-zona" cx="179.23" cy="322.19" r="8.9" id="Plat44" data-nombre="F-4" data-position="43"></circle>
        <circle class="b butaca-zona" cx="200.72" cy="345.14" r="8.9" id="Plat45" data-nombre="G-4" data-position="44"></circle>
        <circle class="b butaca-zona" cx="220.78" cy="365.14" r="8.9" id="Plat46" data-nombre="H-4" data-position="45"></circle>
        <circle class="b butaca-zona" cx="241.37" cy="385.39" r="8.9" id="Plat47" data-nombre="I-4" data-position="46"></circle>
        <circle class="b butaca-zona" cx="263.92" cy="408.79" r="8.9" id="Plat48" data-nombre="J-4" data-position="47"></circle>
        <circle class="b butaca-zona" cx="310.57" cy="408.79" r="8.9" id="Plat49" data-nombre="K-4" data-position="48"></circle>
        <circle class="b butaca-zona" cx="339.57" cy="408.79" r="8.9" id="Plat50" data-nombre="L-4" data-position="49"></circle>
        <circle class="b butaca-zona" cx="368.57" cy="408.79" r="8.9" id="Plat51" data-nombre="M-4" data-position="50"></circle>
        <circle class="b butaca-zona" cx="397.57" cy="408.79" r="8.9" id="Plat52" data-nombre="N-4" data-position="51"></circle>
        <circle class="b butaca-zona" cx="426.57" cy="408.79" r="8.9" id="Plat53" data-nombre="O-4" data-position="52"></circle>
        <circle class="b butaca-zona" cx="455.57" cy="408.79" r="8.9" id="Plat54" data-nombre="P-4" data-position="53"></circle>
        <circle class="b butaca-zona" cx="484.57" cy="408.79" r="8.9" id="Plat55" data-nombre="Q-4" data-position="54"></circle>
        <circle class="b butaca-zona" cx="513.57" cy="408.79" r="8.9" id="Plat56" data-nombre="R-4" data-position="55"></circle>
        <circle class="b butaca-zona" cx="542.57" cy="408.79" r="8.9" id="Plat57" data-nombre="S-4" data-position="56"></circle>
        <circle class="b butaca-zona" cx="571.57" cy="408.79" r="8.9" id="Plat58" data-nombre="T-4" data-position="57"></circle>
        <circle class="b butaca-zona" cx="600.57" cy="408.79" r="8.9" id="Plat59" data-nombre="U-4" data-position="58"></circle>
        <circle class="b butaca-zona" cx="658.57" cy="408.79" r="8.9" id="Plat60" data-nombre="V-4" data-position="59"></circle>
        <circle class="b butaca-zona" cx="687.57" cy="408.79" r="8.9" id="Plat61" data-nombre="W-4" data-position="60"></circle>
        <circle class="b butaca-zona" cx="716.57" cy="408.79" r="8.9" id="Plat62" data-nombre="X-4" data-position="61"></circle>
        <circle class="b butaca-zona" cx="745.57" cy="408.79" r="8.9" id="Plat63" data-nombre="Y-4" data-position="62"></circle>
        <circle class="b butaca-zona" cx="774.57" cy="408.79" r="8.9" id="Plat64" data-nombre="Z-4" data-position="63"></circle>
        <circle class="b butaca-zona" cx="803.57" cy="408.79" r="8.9" id="Plat65" data-nombre="AA-4" data-position="64"></circle>
        <circle class="b butaca-zona" cx="832.57" cy="408.79" r="8.9" id="Plat66" data-nombre="AB-4" data-position="65"></circle>
        <circle class="b butaca-zona" cx="861.57" cy="408.79" r="8.9" id="Plat67" data-nombre="AC-4" data-position="66"></circle>
        <circle class="b butaca-zona" cx="890.57" cy="408.79" r="8.9" id="Plat68" data-nombre="AD-4" data-position="67"></circle>
        <circle class="b butaca-zona" cx="919.57" cy="408.79" r="8.9" id="Plat69" data-nombre="AE-4" data-position="68"></circle>
        <circle class="b butaca-zona" cx="948.57" cy="408.79" r="8.9" id="Plat70" data-nombre="AF-4" data-position="69"></circle>
        <circle class="b butaca-zona" cx="1003.6" cy="408.79" r="8.9" id="Plat71" data-nombre="AG-4" data-position="70"></circle>
        <circle class="b butaca-zona" cx="1025.24" cy="389.24" r="8.9" id="Plat72" data-nombre="AH-4" data-position="71"></circle>
        <circle class="b butaca-zona" cx="1045" cy="369.85" r="8.9" id="Plat73" data-nombre="AI-4" data-position="72"></circle>
        <circle class="b butaca-zona" cx="1066.3" cy="346.29" r="8.9" id="Plat74" data-nombre="AJ-4" data-position="73"></circle>
        <circle class="b butaca-zona" cx="1083.22" cy="328.29" r="8.9" id="Plat75" data-nombre="AK-4" data-position="74"></circle>
        <circle class="b butaca-zona" cx="1101.02" cy="310.49" r="8.9" id="Plat76" data-nombre="AL-4" data-position="75"></circle>
        <circle class="b butaca-zona" cx="1123.79" cy="287.43" r="8.9" id="Plat77" data-nombre="AM-4" data-position="76"></circle>
        <circle class="b butaca-zona" cx="1145.67" cy="265.43" r="8.9" id="Plat78" data-nombre="AN-4" data-position="77"></circle>
        <circle class="b butaca-zona" cx="1164.79" cy="244.57" r="8.9" id="Plat79" data-nombre="AO-4" data-position="78"></circle>
        <circle class="b butaca-zona" cx="1183.9" cy="225.34" r="8.9" id="Plat80" data-nombre="AP-4" data-position="79"></circle>
        <circle class="b butaca-zona" cx="48.2" cy="226.51" r="8.9" id="Plat81" data-nombre="A-5" data-position="80"></circle>
        <circle class="b butaca-zona" cx="68.53" cy="247.46" r="8.9" id="Plat82" data-nombre="B-5" data-position="81"></circle>
        <circle class="b butaca-zona" cx="91.3" cy="271.14" r="8.9" id="Plat83" data-nombre="C-5" data-position="82"></circle>
        <circle class="b butaca-zona" cx="115.44" cy="296.33" r="8.9" id="Plat84" data-nombre="D-5" data-position="83"></circle>
        <circle class="b butaca-zona" cx="139.13" cy="319.8" r="8.9" id="Plat85" data-nombre="E-5" data-position="84"></circle>
        <circle class="b butaca-zona" cx="161.43" cy="339.99" r="8.9" id="Plat86" data-nombre="F-5" data-position="85"></circle>
        <circle class="b butaca-zona" cx="183.84" cy="364.09" r="8.9" id="Plat87" data-nombre="G-5" data-position="86"></circle>
        <circle class="b butaca-zona" cx="207.74" cy="388.65" r="8.9" id="Plat88" data-nombre="H-5" data-position="87"></circle>
        <circle class="b butaca-zona" cx="232.47" cy="413.48" r="8.9" id="Plat89" data-nombre="I-5" data-position="88"></circle>
        <circle class="b butaca-zona" cx="260.42" cy="441.09" r="8.9" id="Plat90" data-nombre="J-5" data-position="89"></circle>
        <circle class="b butaca-zona" cx="310.57" cy="441.09" r="8.9" id="Plat91" data-nombre="K-5" data-position="90"></circle>
        <circle class="b butaca-zona" cx="339.57" cy="441.09" r="8.9" id="Plat92" data-nombre="L-5" data-position="91"></circle>
        <circle class="b butaca-zona" cx="368.57" cy="441.09" r="8.9" id="Plat93" data-nombre="M-5" data-position="92"></circle>
        <circle class="b butaca-zona" cx="397.57" cy="441.09" r="8.9" id="Plat94" data-nombre="N-5" data-position="93"></circle>
        <circle class="b butaca-zona" cx="426.57" cy="441.09" r="8.9" id="Plat95" data-nombre="O-5" data-position="94"></circle>
        <circle class="b butaca-zona" cx="455.57" cy="441.09" r="8.9" id="Plat96" data-nombre="P-5" data-position="95"></circle>
        <circle class="b butaca-zona" cx="484.57" cy="441.09" r="8.9" id="Plat97" data-nombre="Q-5" data-position="96"></circle>
        <circle class="b butaca-zona" cx="513.57" cy="441.09" r="8.9" id="Plat98" data-nombre="R-5" data-position="97"></circle>
        <circle class="b butaca-zona" cx="542.57" cy="441.09" r="8.9" id="Plat99" data-nombre="S-5" data-position="98"></circle>
        <circle class="b butaca-zona" cx="571.57" cy="441.09" r="8.9" id="Plat100" data-nombre="T-5" data-position="99"></circle>
        <circle class="b butaca-zona" cx="600.57" cy="441.09" r="8.9" id="Plat101" data-nombre="U-5" data-position="100"></circle>
        <circle class="b butaca-zona" cx="658.57" cy="441.09" r="8.9" id="Plat102" data-nombre="V-5" data-position="101"></circle>
        <circle class="b butaca-zona" cx="687.57" cy="441.09" r="8.9" id="Plat103" data-nombre="W-5" data-position="102"></circle>
        <circle class="b butaca-zona" cx="716.57" cy="441.09" r="8.9" id="Plat104" data-nombre="X-5" data-position="103"></circle>
        <circle class="b butaca-zona" cx="745.57" cy="441.09" r="8.9" id="Plat105" data-nombre="Y-5" data-position="104"></circle>
        <circle class="b butaca-zona" cx="774.57" cy="441.09" r="8.9" id="Plat106" data-nombre="Z-5" data-position="105"></circle>
        <circle class="b butaca-zona" cx="803.57" cy="441.09" r="8.9" id="Plat107" data-nombre="AA-5" data-position="106"></circle>
        <circle class="b butaca-zona" cx="832.57" cy="441.09" r="8.9" id="Plat108" data-nombre="AB-5" data-position="107"></circle>
        <circle class="b butaca-zona" cx="861.57" cy="441.09" r="8.9" id="Plat109" data-nombre="AC-5" data-position="108"></circle>
        <circle class="b butaca-zona" cx="890.57" cy="441.09" r="8.9" id="Plat110" data-nombre="AD-5" data-position="109"></circle>
        <circle class="b butaca-zona" cx="919.57" cy="441.09" r="8.9" id="Plat111" data-nombre="AE-5" data-position="110"></circle>
        <circle class="b butaca-zona" cx="948.57" cy="441.09" r="8.9" id="Plat112" data-nombre="AF-5" data-position="111"></circle>
        <circle class="b butaca-zona" cx="1013.73" cy="441.09" r="8.9" id="Plat113" data-nombre="AG-5" data-position="112"></circle>
        <circle class="b butaca-zona" cx="1039.25" cy="419.44" r="8.9" id="Plat114" data-nombre="AH-5" data-position="113"></circle>
        <circle class="b butaca-zona" cx="1062.7" cy="393.59" r="8.9" id="Plat115" data-nombre="AI-5" data-position="114"></circle>
        <circle class="b butaca-zona" cx="1084.13" cy="370.45" r="8.9" id="Plat116" data-nombre="AJ-5" data-position="115"></circle>
        <circle class="b butaca-zona" cx="1108.13" cy="345.39" r="8.9" id="Plat117" data-nombre="AK-5" data-position="116"></circle>
        <circle class="b butaca-zona" cx="1132.44" cy="321.69" r="8.9" id="Plat118" data-nombre="AL-5" data-position="117"></circle>
        <circle class="b butaca-zona" cx="1155.56" cy="298.01" r="8.9" id="Plat119" data-nombre="AM-5" data-position="118"></circle>
        <circle class="b butaca-zona" cx="1179.4" cy="274.57" r="8.9" id="Plat120" data-nombre="AN-5" data-position="119"></circle>
        <circle class="b butaca-zona" cx="1202.58" cy="251.32" r="8.9" id="Plat121" data-nombre="AO-5" data-position="120"></circle>
        <circle class="b butaca-zona" cx="1227.63" cy="229.98" r="8.9" id="Plat122" data-nombre="AP-5" data-position="121"></circle>
        <path class="c" d="M49.7,491H46.17l-.72,2H44.16l3.07-8.51h1.41L51.71,493H50.42Zm-.42-1.19-1.35-3.7-1.33,3.7Z" transform="translate(0.26)"></path>
        <path class="c" d="M72.35,490.55c0,1.55-1.17,2.41-3,2.41H66.61v-8.51h2.56c1.77,0,2.7.93,2.7,2.25a2.07,2.07,0,0,1-.9,1.72A2.41,2.41,0,0,1,72.35,490.55Zm-4.49-2.65h1.31c.92,0,1.44-.35,1.44-1.14s-.52-1.12-1.44-1.12H67.86Zm3.23,2.58c0-.81-.59-1.39-1.68-1.39H67.86v2.69h1.49C70.5,491.78,71.09,491.31,71.09,490.48Z" transform="translate(0.26)"></path>
        <path class="c" d="M92.06,485.39a3.2,3.2,0,0,0,0,6.39,3.29,3.29,0,0,0,2.35-.93v1.27a3.67,3.67,0,0,1-2.49.84,4.38,4.38,0,0,1,0-8.75,3.73,3.73,0,0,1,2.49.84v1.27A3.21,3.21,0,0,0,92.06,485.39Z" transform="translate(0.26)"></path>
        <path class="c" d="M119.79,488.71a4,4,0,0,1-4.06,4.25h-2.84v-8.51h2.84A4,4,0,0,1,119.79,488.71Zm-1.24,0a2.79,2.79,0,0,0-2.82-3.07h-1.58v6.14h1.58A2.8,2.8,0,0,0,118.55,488.71Z" transform="translate(0.26)"></path>
        <path class="c" d="M137.78,485.64V488h2.67v1.18h-2.67v2.6h3.42V493h-4.67v-8.51h4.67v1.19Z" transform="translate(0.26)"></path>
        <path class="c" d="M160.08,485.64V488H163v1.19h-2.91V493h-1.24v-8.51h4.66v1.19Z" transform="translate(0.26)"></path>
        <path class="c" d="M187.82,488.2c0,2.93-1.73,4.76-4.27,4.76a4.38,4.38,0,0,1,.13-8.75A4,4,0,0,1,187,486l-.95.73a2.85,2.85,0,0,0-2.41-1.31,3.08,3.08,0,0,0-3.09,3.2,3,3,0,0,0,3,3.19,2.88,2.88,0,0,0,2.94-2.39h-3.24V488.2Z" transform="translate(0.26)"></path>
        <path class="c" d="M210.86,484.45V493H209.6v-3.67h-4.24V493H204.1v-8.51h1.26v3.66h4.24v-3.66Z" transform="translate(0.26)"></path>
        <path class="c" d="M231.59,484.45h1.24V493h-1.24Z" transform="translate(0.26)"></path>
        <path class="c" d="M254.77,491.78c.64,0,1.11-.32,1.11-1.46v-6h1.25v6c0,1.82-1,2.64-2.32,2.64a2.31,2.31,0,0,1-2.42-2.4h1.25A1.1,1.1,0,0,0,254.77,491.78Z" transform="translate(0.26)"></path>
        <path class="c" d="M310.11,488.37l3.42,4.59h-1.47l-2.76-3.65-1,1.08V493h-1.25v-8.51h1.25v4.09l3.58-4.09h1.61Z" transform="translate(0.26)"></path>
        <path class="c" d="M341.67,491.46v1.19H337v-8.51h1.24v7.32Z" transform="translate(0.26)"></path>
        <path class="c" d="M372.69,484.14v8.51h-1.26V486.4l-2.85,4.6H368l-2.85-4.6v6.25h-1.26v-8.51h1.26l3.11,5,3.13-5Z" transform="translate(0.26)"></path>
        <path class="c" d="M400.85,484.14v8.51H399.6l-4.58-6.4v6.4h-1.25v-8.51H395l4.58,6.4v-6.4Z" transform="translate(0.26)"></path>
        <path class="c" d="M422,488.39a4.32,4.32,0,1,1,4.32,4.38A4.32,4.32,0,0,1,422,488.39Zm7.38,0a3.07,3.07,0,1,0-3.06,3.19A3.1,3.1,0,0,0,429.37,488.39Z" transform="translate(0.26)"></path>
        <path class="c" d="M458.31,487a2.81,2.81,0,0,1-3.05,2.84h-1.69v2.82h-1.26v-8.51h2.95A2.81,2.81,0,0,1,458.31,487Zm-1.24,0a1.61,1.61,0,0,0-1.81-1.67h-1.69v3.34h1.69A1.61,1.61,0,0,0,457.07,487Z" transform="translate(0.26)"></path>
        <path class="c" d="M487.8,493.23l-1.15-1.17a4.25,4.25,0,0,1-2.38.71,4.38,4.38,0,1,1,4.32-4.38,4.45,4.45,0,0,1-1,2.86l1.1,1.11Zm-2-2-1.18-1.2.85-.85,1.22,1.23a3.29,3.29,0,0,0,.65-2,3,3,0,1,0-1.54,2.8Z" transform="translate(0.26)"></path>
        <path class="c" d="M513.21,489.89h-1.68v2.76h-1.26v-8.51h3.12a2.82,2.82,0,0,1,2.89,2.88,2.77,2.77,0,0,1-1.79,2.67l1.86,3h-1.41Zm-1.68-1.18h1.86a1.7,1.7,0,0,0,0-3.39h-1.86Z" transform="translate(0.26)"></path>
        <path class="c" d="M540.83,490.18a1.45,1.45,0,0,0,1.56,1.4c.89,0,1.39-.45,1.39-1.06,0-.78-.73-1.17-1.73-1.68-1.59-.9-2.29-1.49-2.29-2.69a2.26,2.26,0,0,1,2.47-2.13,2.46,2.46,0,0,1,2.51,2.47h-1.25a1.26,1.26,0,0,0-1.26-1.29,1.1,1.1,0,0,0-1.22,1c0,.77.59,1,1.49,1.51,1.54.82,2.54,1.54,2.54,2.85s-1.18,2.21-2.65,2.21a2.68,2.68,0,0,1-2.81-2.59Z" transform="translate(0.26)"></path>
        <path class="c" d="M576.66,485.32h-2v7.33h-1.25v-7.33h-2.05v-1.18h5.35Z" transform="translate(0.26)"></path>
        <path class="c" d="M600.32,492.77c-2.08,0-3.37-1.15-3.37-3.69v-4.94h1.26v4.94c0,1.83.8,2.5,2.11,2.5s2.11-.67,2.11-2.5v-4.94h1.24v4.94C603.67,491.62,602.38,492.77,600.32,492.77Z" transform="translate(0.26)"></path>
        <path class="c" d="M662,484.26,659,492.77h-1.46l-2.93-8.51H656l2.35,7,2.37-7Z" transform="translate(0.26)"></path>
        <path class="c" d="M693.55,484.26l-2.7,8.51h-1.48l-2.07-6.49-2,6.49h-1.48l-2.7-8.51h1.28l2.16,6.87,2.16-6.87H688l2.16,6.87,2.16-6.87Z" transform="translate(0.26)"></path>
        <path class="c" d="M717.07,488.51l3.22,4.26h-1.53l-2.46-3.25-2.44,3.25h-1.53l3.22-4.26-3.22-4.25h1.53l2.44,3.25,2.46-3.25h1.53Z" transform="translate(0.26)"></path>
        <path class="c" d="M749,484.26l-3.1,5v3.48h-1.24v-3.48l-3.1-5H743l2.3,3.74,2.3-3.74Z" transform="translate(0.26)"></path>
        <path class="c" d="M778.2,485.44l-4.94,6.14h4.94v1.19h-6.57v-1.19l4.94-6.14h-4.94v-1.18h6.57Z" transform="translate(0.26)"></path>
        <path class="c" d="M798.72,490.78H795.2l-.72,2h-1.3l3.07-8.51h1.42l3.07,8.51h-1.3Zm-.42-1.19-1.34-3.7-1.33,3.7Z" transform="translate(0.26)"></path>
        <path class="c" d="M808.48,490.78H805l-.72,2h-1.29l3.07-8.51h1.41l3.07,8.51H809.2Zm-.42-1.19-1.34-3.7-1.34,3.7Z" transform="translate(0.26)"></path>
        <path class="c" d="M830.05,490.78h-3.52l-.72,2h-1.3l3.07-8.51H829l3.07,8.51h-1.3Zm-.42-1.19-1.34-3.7-1.33,3.7Z" transform="translate(0.26)"></path>
        <path class="c" d="M840.11,490.36c0,1.55-1.17,2.41-3,2.41h-2.73v-8.51h2.55c1.77,0,2.7.93,2.7,2.25a2.07,2.07,0,0,1-.9,1.72A2.41,2.41,0,0,1,840.11,490.36Zm-4.49-2.65h1.31c.92,0,1.44-.35,1.44-1.14s-.52-1.13-1.44-1.13h-1.31Zm3.23,2.58c0-.82-.59-1.39-1.68-1.39h-1.55v2.68h1.49C838.26,491.58,838.85,491.12,838.85,490.29Z" transform="translate(0.26)"></path>
        <path class="c" d="M859,490.66h-3.53l-.72,2h-1.3l3.07-8.51h1.42l3.07,8.51h-1.3Zm-.42-1.19-1.35-3.7-1.33,3.7Z" transform="translate(0.26)"></path>
        <path class="c" d="M866.84,485.2a3.19,3.19,0,0,0,0,6.38,3.33,3.33,0,0,0,2.35-.92v1.27a3.76,3.76,0,0,1-2.5.84,4.38,4.38,0,0,1,0-8.75,3.7,3.7,0,0,1,2.5.84v1.27A3.25,3.25,0,0,0,866.84,485.2Z" transform="translate(0.26)"></path>
        <path class="c" d="M887.54,490.78H884l-.72,2H882l3.07-8.51h1.41l3.07,8.51h-1.29Zm-.42-1.19-1.35-3.7-1.33,3.7Z" transform="translate(0.26)"></path>
        <path class="c" d="M898.62,488.51a4,4,0,0,1-4.06,4.26h-2.84v-8.51h2.84A4,4,0,0,1,898.62,488.51Zm-1.24,0a2.8,2.8,0,0,0-2.82-3.07H893v6.14h1.58A2.8,2.8,0,0,0,897.38,488.51Z" transform="translate(0.26)"></path>
        <path class="c" d="M917.65,490.78h-3.52l-.72,2h-1.3l3.07-8.51h1.42l3.07,8.51h-1.3Zm-.42-1.19-1.34-3.7-1.33,3.7Z" transform="translate(0.26)"></path>
        <path class="c" d="M923.09,485.44v2.37h2.66V489h-2.66v2.59h3.42v1.19h-4.68v-8.51h4.68v1.18Z" transform="translate(0.26)"></path>
        <path class="c" d="M946.68,490.78h-3.52l-.72,2h-1.3l3.07-8.51h1.42l3.07,8.51h-1.3Zm-.42-1.19-1.34-3.7-1.33,3.7Z" transform="translate(0.26)"></path>
        <path class="c" d="M952.06,485.44v2.4H955V489h-2.9v3.74h-1.25v-8.51h4.67v1.18Z" transform="translate(0.26)"></path>
        <path class="c" d="M1010.27,490.66h-3.53l-.72,2h-1.29l3.07-8.51h1.41l3.07,8.51H1011Zm-.42-1.19-1.35-3.7-1.33,3.7Z" transform="translate(0.26)"></path>
        <path class="c" d="M1022.2,488c0,2.93-1.72,4.76-4.27,4.76a4.38,4.38,0,0,1,.14-8.75,4,4,0,0,1,3.35,1.76l-.94.73a2.88,2.88,0,0,0-2.41-1.31,3.09,3.09,0,0,0-3.1,3.19,3,3,0,0,0,3,3.19,2.87,2.87,0,0,0,2.94-2.38h-3.24V488Z" transform="translate(0.26)"></path>
        <path class="c" d="M1036.28,490.78h-3.52l-.72,2h-1.3l3.07-8.51h1.42l3.07,8.51H1037Zm-.42-1.19-1.34-3.7-1.33,3.7Z" transform="translate(0.26)"></path>
        <path class="c" d="M1047.23,484.26v8.51H1046V489.1h-4.25v3.67h-1.26v-8.51h1.26v3.65H1046v-3.65Z" transform="translate(0.26)"></path>
        <path class="c" d="M1062.46,490.78h-3.52l-.72,2h-1.3l3.07-8.51h1.42l3.07,8.51h-1.3Zm-.42-1.19-1.34-3.7-1.33,3.7Z" transform="translate(0.26)"></path>
        <path class="c" d="M1066.71,484.26H1068v8.51h-1.25Z" transform="translate(0.26)"></path>
        <path class="c" d="M1082.43,490.66h-3.53l-.72,2h-1.29l3.07-8.51h1.41l3.07,8.51h-1.29Zm-.42-1.19-1.35-3.7-1.33,3.7Z" transform="translate(0.26)"></path>
        <path class="c" d="M1088.48,491.58c.64,0,1.11-.31,1.11-1.45v-6h1.25v6c0,1.81-1,2.64-2.32,2.64a2.31,2.31,0,0,1-2.42-2.4h1.25A1.09,1.09,0,0,0,1088.48,491.58Z" transform="translate(0.26)"></path>
        <path class="c" d="M1105.29,490.78h-3.53l-.72,2h-1.29l3.07-8.51h1.41l3.07,8.51H1106Zm-.42-1.19-1.34-3.7-1.34,3.7Z" transform="translate(0.26)"></path>
        <path class="c" d="M1112.56,488.18l3.42,4.59h-1.47l-2.76-3.66-1,1.08v2.58h-1.25v-8.51h1.25v4.09l3.58-4.09H1116Z" transform="translate(0.26)"></path>
        <path class="c" d="M1130.4,490.78h-3.53l-.72,2h-1.29l3.07-8.51h1.41l3.07,8.51h-1.29Zm-.42-1.19-1.34-3.7-1.34,3.7Z" transform="translate(0.26)"></path>
        <path class="c" d="M1139.49,491.58v1.19h-4.72v-8.51H1136v7.32Z" transform="translate(0.26)"></path>
        <path class="c" d="M1151.49,490.78H1148l-.72,2H1146l3.07-8.51h1.42l3.07,8.51h-1.3Zm-.42-1.19-1.34-3.7-1.33,3.7Z" transform="translate(0.26)"></path>
        <path class="c" d="M1164.64,484.26v8.51h-1.26v-6.25l-2.85,4.6H1160l-2.86-4.6v6.25h-1.26v-8.51h1.26l3.12,5,3.13-5Z" transform="translate(0.26)"></path>
        <path class="c" d="M1176.24,490.78h-3.52l-.72,2h-1.3l3.07-8.51h1.42l3.07,8.51H1177Zm-.42-1.19-1.34-3.7-1.33,3.7Z" transform="translate(0.26)"></path>
        <path class="c" d="M1187.57,484.26v8.51h-1.25l-4.58-6.4v6.4h-1.25v-8.51h1.25l4.58,6.4v-6.4Z" transform="translate(0.26)"></path>
        <path class="c" d="M1199,490.66h-3.52l-.72,2h-1.3l3.07-8.51H1198l3.07,8.51h-1.3Zm-.42-1.19-1.34-3.7-1.33,3.7Z" transform="translate(0.26)"></path>
        <path class="c" d="M1202.5,488.39a4.32,4.32,0,1,1,4.32,4.38A4.31,4.31,0,0,1,1202.5,488.39Zm7.38,0a3.07,3.07,0,1,0-3.06,3.19A3.1,3.1,0,0,0,1209.88,488.39Z" transform="translate(0.26)"></path>
        <path class="c" d="M1225,490.78h-3.52l-.72,2h-1.3l3.07-8.51H1224l3.07,8.51h-1.3Zm-.42-1.19-1.34-3.7-1.33,3.7Z" transform="translate(0.26)"></path>
        <path class="c" d="M1235.23,487.11a2.81,2.81,0,0,1-3.06,2.84h-1.69v2.82h-1.26v-8.51h3A2.81,2.81,0,0,1,1235.23,487.11Zm-1.25,0a1.61,1.61,0,0,0-1.81-1.67h-1.69v3.34h1.69A1.61,1.61,0,0,0,1234,487.11Z" transform="translate(0.26)"></path>
    </svg>