<svg version="1.1" id="Capa_1" xmlns="http://www.w3.org/2000/svg" xmlns:xlink="http://www.w3.org/1999/xlink" x="0px" y="0px" viewBox="0 0 1280 720" style="enable-background:new 0 0 1280 720;
" xml:space="preserve">
<style>.st0{fill:#F39200;}
	.st1{fill:none;}
	.st2{fill:#6B6B6B;}
</style>
<circle class="st0 butaca-zona" cx="200.5" cy="287.4" r="8.9" id="Pref1" data-nombre="G-1" data-position="0"></circle>
<circle class="st0 butaca-zona" cx="223.3" cy="309.2" r="8.9" id="Pref2" data-nombre="H-1" data-position="1"></circle>
<circle class="st0 butaca-zona" cx="245.9" cy="333.3" r="8.9" id="Pref3" data-nombre="I-1" data-position="2"></circle>
<circle class="st0 butaca-zona" cx="266.8" cy="354.6" r="8.9" id="Pref4" data-nombre="J-1" data-position="3"></circle>
<circle class="st0 butaca-zona" cx="310.3" cy="354.6" r="8.9" id="Pref5" data-nombre="K-1" data-position="4"></circle>
<circle class="st0 butaca-zona" cx="339.3" cy="354.6" r="8.9" id="Pref6" data-nombre="L-1" data-position="5"></circle>
<circle class="st0 butaca-zona" cx="368.3" cy="354.6" r="8.9" id="Pref7" data-nombre="M-1" data-position="6"></circle>
<circle class="st0 butaca-zona" cx="397.3" cy="354.6" r="8.9" id="Pref8" data-nombre="N-1" data-position="7"></circle>
<circle class="st0 butaca-zona" cx="426.3" cy="354.6" r="8.9" id="Pref9" data-nombre="O-1" data-position="8"></circle>
<circle class="st0 butaca-zona" cx="455.3" cy="354.6" r="8.9" id="Pref10" data-nombre="P-1" data-position="9"></circle>
<circle class="st0 butaca-zona" cx="484.3" cy="354.6" r="8.9" id="Pref11" data-nombre="Q-1" data-position="10"></circle>
<circle class="st0 butaca-zona" cx="513.3" cy="354.6" r="8.9" id="Pref12" data-nombre="R-1" data-position="11"></circle>
<circle class="st0 butaca-zona" cx="542.3" cy="354.6" r="8.9" id="Pref13" data-nombre="S-1" data-position="12"></circle>
<circle class="st0 butaca-zona" cx="571.3" cy="354.6" r="8.9" id="Pref14" data-nombre="T-1" data-position="13"></circle>
<circle class="st0 butaca-zona" cx="600.3" cy="354.6" r="8.9" id="Pref15" data-nombre="U-1" data-position="14"></circle>
<circle class="st0 butaca-zona" cx="658.3" cy="354.6" r="8.9" id="Pref16" data-nombre="V-1" data-position="15"></circle>
<circle class="st0 butaca-zona" cx="687.3" cy="354.6" r="8.9" id="Pref17" data-nombre="W-1" data-position="16"></circle>
<circle class="st0 butaca-zona" cx="716.3" cy="354.6" r="8.9" id="Pref18" data-nombre="X-1" data-position="17"></circle>
<circle class="st0 butaca-zona" cx="745.3" cy="354.6" r="8.9" id="Pref19" data-nombre="Y-1" data-position="18"></circle>
<circle class="st0 butaca-zona" cx="774.3" cy="354.6" r="8.9" id="Pref20" data-nombre="Z-1" data-position="19"></circle>
<circle class="st0 butaca-zona" cx="803.3" cy="354.6" r="8.9" id="Pref21" data-nombre="AA-1" data-position="20"></circle>
<circle class="st0 butaca-zona" cx="832.3" cy="354.6" r="8.9" id="Pref22" data-nombre="AB-1" data-position="21"></circle>
<circle class="st0 butaca-zona" cx="861.3" cy="354.6" r="8.9" id="Pref23" data-nombre="AC-1" data-position="22"></circle>
<circle class="st0 butaca-zona" cx="890.3" cy="354.6" r="8.9" id="Pref24" data-nombre="AD-1" data-position="23"></circle>
<circle class="st0 butaca-zona" cx="919.3" cy="354.6" r="8.9" id="Pref25" data-nombre="AE-1" data-position="24"></circle>
<circle class="st0 butaca-zona" cx="948.3" cy="354.6" r="8.9" id="Pref26" data-nombre="AF-1" data-position="25"></circle>
<circle class="st0 butaca-zona" cx="994.4" cy="354.6" r="8.9" id="Pref27" data-nombre="AG-1" data-position="26"></circle>
<circle class="st0 butaca-zona" cx="1017.4" cy="332.6" r="8.9" id="Pref28" data-nombre="AH-1" data-position="27"></circle>
<circle class="st0 butaca-zona" cx="1039.3" cy="309.2" r="8.9" id="Pref29" data-nombre="AI-1" data-position="28"></circle>
<circle class="st0 butaca-zona" cx="1060.5" cy="287.4" r="8.9" id="Pref30" data-nombre="AJ-1" data-position="29"></circle>
<circle class="st0 butaca-zona" cx="152.4" cy="274.5" r="8.9" id="Pref31" data-nombre="E-2" data-position="30"></circle>
<circle class="st0 butaca-zona" cx="174.3" cy="297.5" r="8.9" id="Pref32" data-nombre="F-2" data-position="31"></circle>
<circle class="st0 butaca-zona" cx="196.8" cy="321.3" r="8.9" id="Pref33" data-nombre="G-2" data-position="32"></circle>
<circle class="st0 butaca-zona" cx="220.1" cy="342.2" r="8.9" id="Pref34" data-nombre="H-2" data-position="33"></circle>
<circle class="st0 butaca-zona" cx="241.1" cy="363.5" r="8.9" id="Pref35" data-nombre="I-2" data-position="34"></circle>
<circle class="st0 butaca-zona" cx="263.7" cy="386.9" r="8.9" id="Pref36" data-nombre="J-2" data-position="35"></circle>
<circle class="st0 butaca-zona" cx="310.3" cy="386.9" r="8.9" id="Pref37" data-nombre="K-2" data-position="36"></circle>
<circle class="st0 butaca-zona" cx="339.3" cy="386.9" r="8.9" id="Pref38" data-nombre="L-2" data-position="37"></circle>
<circle class="st0 butaca-zona" cx="368.3" cy="386.9" r="8.9" id="Pref39" data-nombre="M-2" data-position="38"></circle>
<circle class="st0 butaca-zona" cx="397.3" cy="386.9" r="8.9" id="Pref40" data-nombre="N-2" data-position="39"></circle>
<circle class="st0 butaca-zona" cx="426.3" cy="386.9" r="8.9" id="Pref41" data-nombre="O-2" data-position="40"></circle>
<circle class="st0 butaca-zona" cx="455.3" cy="386.9" r="8.9" id="Pref42" data-nombre="P-2" data-position="41"></circle>
<circle class="st0 butaca-zona" cx="484.3" cy="386.9" r="8.9" id="Pref43" data-nombre="Q-2" data-position="42"></circle>
<circle class="st0 butaca-zona" cx="514.3" cy="386.9" r="8.9" id="Pref44" data-nombre="R-2" data-position="43"></circle>
<circle class="st0 butaca-zona" cx="542.3" cy="386.9" r="8.9" id="Pref45" data-nombre="S-2" data-position="44"></circle>
<circle class="st0 butaca-zona" cx="571.3" cy="386.9" r="8.9" id="Pref46" data-nombre="T-2" data-position="45"></circle>
<circle class="st0 butaca-zona" cx="600.3" cy="386.9" r="8.9" id="Pref47" data-nombre="U-2" data-position="46"></circle>
<circle class="st0 butaca-zona" cx="658.3" cy="386.9" r="8.9" id="Pref48" data-nombre="V-2" data-position="47"></circle>
<circle class="st0 butaca-zona" cx="687.3" cy="386.9" r="8.9" id="Pref49" data-nombre="W-2" data-position="48"></circle>
<circle class="st0 butaca-zona" cx="716.3" cy="386.9" r="8.9" id="Pref50" data-nombre="X-2" data-position="49"></circle>
<circle class="st0 butaca-zona" cx="745.3" cy="386.9" r="8.9" id="Pref51" data-nombre="Y-2" data-position="50"></circle>
<circle class="st0 butaca-zona" cx="774.3" cy="386.9" r="8.9" id="Pref52" data-nombre="Z-2" data-position="51"></circle>
<circle class="st0 butaca-zona" cx="803.3" cy="386.9" r="8.9" id="Pref53" data-nombre="AA-2" data-position="52"></circle>
<circle class="st0 butaca-zona" cx="832.3" cy="386.9" r="8.9" id="Pref54" data-nombre="AB-2" data-position="53"></circle>
<circle class="st0 butaca-zona" cx="861.3" cy="386.9" r="8.9" id="Pref55" data-nombre="AC-2" data-position="54"></circle>
<circle class="st0 butaca-zona" cx="890.3" cy="386.9" r="8.9" id="Pref56" data-nombre="AD-2" data-position="55"></circle>
<circle class="st0 butaca-zona" cx="919.3" cy="386.9" r="8.9" id="Pref57" data-nombre="AE-2" data-position="56"></circle>
<circle class="st0 butaca-zona" cx="948.3" cy="386.9" r="8.9" id="Pref58" data-nombre="AF-2" data-position="57"></circle>
<circle class="st0 butaca-zona" cx="1003.3" cy="386.9" r="8.9" id="Pref59" data-nombre="AG-2" data-position="58"></circle>
<circle class="st0 butaca-zona" cx="1026.9" cy="363.5" r="8.9" id="Pref60" data-nombre="AH-2" data-position="59"></circle>
<circle class="st0 butaca-zona" cx="1048.2" cy="342.2" r="8.9" id="Pref61" data-nombre="AI-2" data-position="60"></circle>
<circle class="st0 butaca-zona" cx="1070.2" cy="321.3" r="8.9" id="Pref62" data-nombre="AJ-2" data-position="61"></circle>
<circle class="st0 butaca-zona" cx="1091.9" cy="297.5" r="8.9" id="Pref63" data-nombre="AK-2" data-position="62"></circle>
<circle class="st0 butaca-zona" cx="1114.6" cy="274.5" r="8.9" id="Pref64" data-nombre="AL-2" data-position="63"></circle>
<rect class="st1" width="1280" height="720"></rect>
<g>
	<path class="st2" d="M151.3,427.8v2.4h2.7v1.2h-2.7v2.6h3.4v1.2H150v-8.5h4.7v1.2h-3.4V427.8z"></path>
	<path class="st2" d="M175.6,427.8v2.4h2.9v1.2h-2.9v3.7h-1.2v-8.5h4.7v1.2L175.6,427.8L175.6,427.8z"></path>
	<path class="st2" d="M202.4,430.4c0,2.9-1.7,4.8-4.3,4.8c-2.4,0-4.2-2-4.2-4.4s1.8-4.4,4.3-4.4c1.5,0,2.6,0.7,3.4,1.8l-0.9,0.7
		c-0.5-0.7-1.3-1.3-2.4-1.3c-1.8,0-3.1,1.4-3.1,3.2c0,1.8,1.2,3.2,3,3.2c1.6,0,2.7-1,2.9-2.4h-3.2v-1.2L202.4,430.4L202.4,430.4z"></path>
	<path class="st2" d="M223.5,426.6v8.5h-1.3v-3.7H218v3.7h-1.3v-8.5h1.3v3.7h4.2v-3.7H223.5z"></path>
	<path class="st2" d="M240.5,426.6h1.2v8.5h-1.2V426.6z"></path>
	<path class="st2" d="M263.7,434c0.6,0,1.1-0.3,1.1-1.5v-6h1.2v6c0,1.8-1,2.6-2.3,2.6c-1.1,0-2.4-0.7-2.4-2.4h1.2
		C262.5,433.5,263,434,263.7,434z"></path>
	<path class="st2" d="M310.1,430.6l3.4,4.6H312l-2.8-3.7l-1,1.1v2.6H307v-8.5h1.2v4.1l3.6-4.1h1.6L310.1,430.6z"></path>
	<path class="st2" d="M341.7,434v1.2H337v-8.5h1.2v7.3H341.7z"></path>
	<path class="st2" d="M372.7,426.6v8.5h-1.3v-6.2l-2.9,4.6H368l-2.9-4.6v6.2h-1.3v-8.5h1.3l3.1,5l3.1-5H372.7z"></path>
	<path class="st2" d="M400.8,426.6v8.5h-1.2l-4.6-6.4v6.4h-1.2v-8.5h1.2l4.6,6.4v-6.4H400.8z"></path>
	<path class="st2" d="M422,430.8c0-2.4,1.9-4.4,4.3-4.4s4.3,2,4.3,4.4s-1.9,4.4-4.3,4.4C423.9,435.1,422,433.2,422,430.8z
		 M429.4,430.8c0-1.7-1.3-3.2-3.1-3.2c-1.8,0-3.1,1.5-3.1,3.2s1.3,3.2,3.1,3.2S429.4,432.5,429.4,430.8z"></path>
	<path class="st2" d="M458.3,429.5c0,1.8-1.4,2.8-3.1,2.8h-1.7v2.8h-1.3v-8.5h3C456.9,426.6,458.3,427.6,458.3,429.5z M457.1,429.5
		c0-1.1-0.8-1.7-1.8-1.7h-1.7v3.3h1.7C456.3,431.2,457.1,430.6,457.1,429.5z"></path>
	<path class="st2" d="M485.5,435.1l-1.2-1.2c-0.7,0.4-1.5,0.7-2.4,0.7c-2.4,0-4.3-2-4.3-4.4s1.9-4.4,4.3-4.4s4.3,2,4.3,4.4
		c0,1.1-0.4,2.1-1,2.9l1.1,1.1L485.5,435.1z M483.4,433.1l-1.2-1.2l0.9-0.9l1.2,1.2c0.4-0.6,0.6-1.2,0.6-2c0-1.7-1.3-3.2-3.1-3.2
		c-1.8,0-3.1,1.5-3.1,3.2s1.3,3.2,3.1,3.2C482.5,433.5,483,433.4,483.4,433.1z"></path>
	<path class="st2" d="M516.4,432.4h-1.7v2.8h-1.3v-8.5h3.1c1.5,0,2.9,1.1,2.9,2.9c0,1.3-0.8,2.3-1.8,2.7l1.9,3h-1.4L516.4,432.4z
		 M514.7,431.2h1.9c0.9,0,1.6-0.6,1.6-1.7s-0.8-1.7-1.6-1.7h-1.9V431.2z"></path>
	<path class="st2" d="M541.1,432.6c0.1,1,0.8,1.4,1.6,1.4c0.9,0,1.4-0.5,1.4-1.1c0-0.8-0.7-1.2-1.7-1.7c-1.6-0.9-2.3-1.5-2.3-2.7
		c0-1.3,1.1-2.1,2.5-2.1c1.5,0,2.5,1.1,2.5,2.5h-1.2c0-0.8-0.6-1.3-1.3-1.3s-1.2,0.4-1.2,1c0,0.8,0.6,1,1.5,1.5
		c1.5,0.8,2.5,1.5,2.5,2.9s-1.2,2.2-2.7,2.2c-1.7,0-2.8-1.2-2.8-2.6L541.1,432.6L541.1,432.6z"></path>
	<path class="st2" d="M574.1,427.8H572v7.3h-1.2v-7.3h-2.1v-1.2h5.3L574.1,427.8L574.1,427.8z"></path>
	<path class="st2" d="M600.3,435.5c-2.1,0-3.4-1.2-3.4-3.7v-4.9h1.3v4.9c0,1.8,0.8,2.5,2.1,2.5s2.1-0.7,2.1-2.5v-4.9h1.2v4.9
		C603.7,434.3,602.4,435.5,600.3,435.5z"></path>
	<path class="st2" d="M662,426.9l-2.9,8.5h-1.5l-2.9-8.5h1.3l2.3,7l2.4-7H662z"></path>
	<path class="st2" d="M693.6,426.9l-2.7,8.5h-1.5l-2.1-6.5l-2.1,6.5h-1.5l-2.7-8.5h1.3l2.2,6.9l2.2-6.9h1.3l2.2,6.9l2.2-6.9H693.6z"></path>
	<path class="st2" d="M717.1,431.2l3.2,4.3h-1.5l-2.5-3.2l-2.4,3.2h-1.5l3.2-4.3l-3.2-4.3h1.5l2.4,3.3l2.5-3.3h1.5L717.1,431.2z"></path>
	<path class="st2" d="M749,426.9l-3.1,5v3.5h-1.2V432l-3.1-5h1.4l2.3,3.7l2.3-3.7h1.4V426.9z"></path>
	<path class="st2" d="M777.6,428.1l-4.9,6.1h4.9v1.2H771v-1.2l4.9-6.1H771v-1.2h6.6V428.1z"></path>
	<g>
		<path class="st2" d="M800.2,433.5h-3.5l-0.7,2h-1.3l3.1-8.5h1.4l3.1,8.5H801L800.2,433.5z M799.8,432.3l-1.3-3.7l-1.3,3.7H799.8z"></path>
		<path class="st2" d="M810,433.5h-3.5l-0.7,2h-1.3l3.1-8.5h1.4l3.1,8.5h-1.3L810,433.5z M809.5,432.3l-1.3-3.7l-1.3,3.7H809.5z"></path>
	</g>
	<g>
		<path class="st2" d="M829.9,433.5h-3.5l-0.7,2h-1.3l3.1-8.5h1.4l3.1,8.5h-1.3L829.9,433.5z M829.5,432.3l-1.3-3.7l-1.3,3.7H829.5z
			"></path>
		<path class="st2" d="M840,433c0,1.5-1.2,2.4-3,2.4h-2.7v-8.5h2.6c1.8,0,2.7,0.9,2.7,2.3c0,0.7-0.3,1.3-0.9,1.7
			C839.4,431.3,840,432.1,840,433z M835.5,430.4h1.3c0.9,0,1.4-0.3,1.4-1.1c0-0.7-0.5-1.1-1.4-1.1h-1.3V430.4z M838.7,433
			c0-0.8-0.6-1.4-1.7-1.4h-1.5v2.7h1.5C838.1,434.3,838.7,433.8,838.7,433z"></path>
	</g>
	<g>
		<path class="st2" d="M859,433.3h-3.5l-0.7,2h-1.3l3.1-8.5h1.4l3.1,8.5h-1.3L859,433.3z M858.6,432.2l-1.3-3.7l-1.3,3.7H858.6z"></path>
		<path class="st2" d="M866.8,427.9c-1.7,0-3.2,1.3-3.2,3.2s1.4,3.2,3.2,3.2c1.2,0,2-0.6,2.4-0.9v1.3c-0.4,0.4-1.2,0.8-2.5,0.8
			c-2.4,0-4.3-1.9-4.3-4.4s1.9-4.4,4.3-4.4c1.2,0,2.1,0.5,2.5,0.8v1.3C868.8,428.4,868,427.9,866.8,427.9z"></path>
	</g>
	<g>
		<g>
			<path class="st2" d="M887.5,433.5H884l-0.7,2H882l3.1-8.5h1.4l3.1,8.5h-1.3L887.5,433.5z M887.1,432.3l-1.3-3.7l-1.3,3.7H887.1z"></path>
		</g>
		<path class="st2" d="M898.6,431.2c0,2.4-1.6,4.3-4.1,4.3h-2.8V427h2.8C897,426.9,898.6,428.8,898.6,431.2z M897.4,431.2
			c0-1.9-1.2-3.1-2.8-3.1H893v6.1h1.6C896.2,434.3,897.4,433.1,897.4,431.2z"></path>
	</g>
	<g>
		<path class="st2" d="M917.7,433.5h-3.5l-0.7,2h-1.3l3.1-8.5h1.4l3.1,8.5h-1.3L917.7,433.5z M917.2,432.3l-1.3-3.7l-1.3,3.7H917.2z
			"></path>
		<path class="st2" d="M923.1,428.1v2.4h2.7v1.2h-2.7v2.6h3.4v1.2h-4.7V427h4.7v1.2h-3.4V428.1z"></path>
	</g>
	<g>
		<path class="st2" d="M946.7,433.5h-3.5l-0.7,2h-1.3l3.1-8.5h1.4l3.1,8.5h-1.3L946.7,433.5z M946.3,432.3l-1.3-3.7l-1.3,3.7H946.3z
			"></path>
		<path class="st2" d="M952.1,428.1v2.4h2.9v1.2h-2.9v3.7h-1.2v-8.5h4.7v1.2L952.1,428.1L952.1,428.1z"></path>
	</g>
	<g>
		<path class="st2" d="M1000.1,433.3h-3.5l-0.7,2h-1.3l3.1-8.5h1.4l3.1,8.5h-1.3L1000.1,433.3z M999.7,432.2l-1.3-3.7l-1.3,3.7
			H999.7z"></path>
		<path class="st2" d="M1012.1,430.7c0,2.9-1.7,4.8-4.3,4.8c-2.4,0-4.2-2-4.2-4.4s1.8-4.4,4.3-4.4c1.5,0,2.6,0.7,3.4,1.8l-0.9,0.7
			c-0.5-0.7-1.3-1.3-2.4-1.3c-1.8,0-3.1,1.4-3.1,3.2c0,1.8,1.2,3.2,3,3.2c1.6,0,2.7-1,2.9-2.4h-3.2v-1.2L1012.1,430.7L1012.1,430.7z
			"></path>
	</g>
	<g>
		<path class="st2" d="M1026.6,433.5h-3.5l-0.7,2h-1.3l3.1-8.5h1.4l3.1,8.5h-1.3L1026.6,433.5z M1026.2,432.3l-1.3-3.7l-1.3,3.7
			H1026.2z"></path>
		<path class="st2" d="M1037.5,426.9v8.5h-1.3v-3.7h-4.2v3.7h-1.3v-8.5h1.3v3.7h4.2v-3.7H1037.5z"></path>
	</g>
	<g>
		<path class="st2" d="M1053.2,433.5h-3.5l-0.7,2h-1.3l3.1-8.5h1.4l3.1,8.5h-1.3L1053.2,433.5z M1052.7,432.3l-1.3-3.7l-1.3,3.7
			H1052.7z"></path>
		<path class="st2" d="M1057.4,426.9h1.2v8.5h-1.2V426.9z"></path>
	</g>
	<g>
		<path class="st2" d="M1073.4,433.3h-3.5l-0.7,2h-1.3l3.1-8.5h1.4l3.1,8.5h-1.3L1073.4,433.3z M1073,432.2l-1.3-3.7l-1.3,3.7H1073z
			"></path>
		<path class="st2" d="M1079.5,434.3c0.6,0,1.1-0.3,1.1-1.5v-6h1.2v6c0,1.8-1,2.6-2.3,2.6c-1.1,0-2.4-0.7-2.4-2.4h1.2
			C1078.3,433.8,1078.8,434.3,1079.5,434.3z"></path>
	</g>
	<g>
		<path class="st2" d="M1095.9,433.5h-3.5l-0.7,2h-1.3l3.1-8.5h1.4l3.1,8.5h-1.3L1095.9,433.5z M1095.4,432.3l-1.3-3.7l-1.3,3.7
			H1095.4z"></path>
		<path class="st2" d="M1103.1,430.9l3.4,4.6h-1.5l-2.8-3.7l-1,1.1v2.6h-1.2V427h1.2v4.1l3.6-4.1h1.6L1103.1,430.9z"></path>
	</g>
	<g>
		<path class="st2" d="M1118.3,433.5h-3.5l-0.7,2h-1.3l3.1-8.5h1.4l3.1,8.5h-1.3L1118.3,433.5z M1117.8,432.3l-1.3-3.7l-1.3,3.7
			H1117.8z"></path>
		<path class="st2" d="M1127.4,434.3v1.2h-4.7V427h1.2v7.3H1127.4z"></path>
	</g>
</g>
</svg>